<?xml version="1.0" standalone="no"?>
<!DOCTYPE svg PUBLIC "-//W3C//DTD SVG 1.1//EN" "http://www.w3.org/Graphics/SVG/1.1/DTD/svg11.dtd" >
<svg xmlns="http://www.w3.org/2000/svg">
<metadata></metadata>
<defs>
<font id="limon_s1normal" horiz-adv-x="4" >
<font-face units-per-em="2048" ascent="1638" descent="-410" />
<missing-glyph horiz-adv-x="311" />
<glyph horiz-adv-x="2048" />
<glyph horiz-adv-x="2048" />
<glyph unicode="&#xd;" horiz-adv-x="311" />
<glyph unicode=" "  horiz-adv-x="311" />
<glyph unicode="&#x09;" horiz-adv-x="311" />
<glyph unicode="&#xa0;" horiz-adv-x="311" />
<glyph unicode="!" horiz-adv-x="413" d="M147 494v65q102 16 128 35.5t53 101.5h57v-696h-82v494h-156z" />
<glyph unicode="#" horiz-adv-x="598" d="M135 201h82l6 -58q23 -88 119 -88q86 0 127 38t41 110q0 61 -40 87.5t-110 26.5l-41 -2v74q88 0 123 19q45 27 45 98q0 47 -24 76q-33 33 -111 32q-80 -12 -106 -65q-12 -25 -13 -82l-81 2q0 53 12 92t41 70q55 59 155 59q94 0 156 -48t62 -146q0 -53 -29 -90 q-14 -20 -55 -50q61 -25 82.5 -63.5t21.5 -99.5q0 -68 -31.5 -118t-105.5 -79q-49 -18 -92 -19l-64 5q-90 18 -130 78.5t-40 140.5z" />
<glyph unicode="$" horiz-adv-x="598" d="M135 164v90l316 436h63v-446h100v-80h-100v-164h-82v164h-297zM213 244h219v309z" />
<glyph unicode="%" horiz-adv-x="598" d="M162 186h84q16 -47 28 -61q35 -47 101 -47l18 2q117 0 129 123v26q0 78 -40 117t-99 39q-74 0 -125 -59h-76l51 364h347v-82h-279l-27 -184q25 25 54 31l63 8l49 -2q16 0 39 -12q59 -20 96 -71.5t37 -146.5q0 -74 -31.5 -123t-84.5 -79l-47 -19l-52 -10l-49 2 q-27 0 -43 8q-102 33 -133 123z" />
<glyph unicode="&#x26;" horiz-adv-x="598" d="M135 608v84h463v-74l-78 -110q-49 -68 -88 -152q-37 -59 -66.5 -148t-50.5 -208h-92q31 119 56.5 193.5t70.5 154.5l78 133l78 127h-371z" />
<glyph unicode="(" horiz-adv-x="598" d="M133 463l6 55q12 51 41 90q16 18 37 37t37 29q31 18 100 18q51 0 101 -24q49 -20 77 -66q20 -29 31.5 -80t11.5 -108l3 -60l-3 -61l-6 -51q0 -20 -14 -70q-25 -92 -94 -135q-61 -31 -111 -37h-49q-29 6 -39 8q-27 8 -59 37q-55 55 -56 127h82q0 -35 28 -60.5t67 -31.5 l18 -2q35 0 67.5 18.5t57.5 61.5l20 71q12 49 13 76l-2 23q-31 -37 -74 -62q-25 -10 -51 -14l-29 -4l-43 6q-66 8 -108 51q-35 39 -54 101zM217 471l6 -51q7 -28 23 -51q16 -25 43 -37q18 -6 61 -10q27 0 55.5 12t47 30.5t28.5 45.5l8 53q0 57 -28 98q-41 55 -109 55 q-35 0 -62.5 -13t-50 -48t-22.5 -84z" />
<glyph unicode=")" horiz-adv-x="557" d="M129 535q-2 12 6 49q10 31 55 84l39 20q33 18 60 23l26 -4q16 0 50 -21l34 -16q25 -14 44.5 -29.5t56.5 -48.5l14 12q31 39 100 76l2 -80l-41 -25q-12 -6 -20 -16l-57 -61q-16 12 -52 33.5t-71 43.5l-21 15q-43 37 -80 37q-20 0 -36 -11l-17 -12q-25 -16 -28 -31l6 -14 l106 -67l23 -13v-387q0 -12 14 -20l45 -4l68 2l57 24q37 23 37 43v277l92 10v-498l-27 -4l-22 -2l-47 4v154q-16 -35 -68 -60q-43 -16 -80 -20q-88 0 -118 12q-43 18 -43 76v375z" />
<glyph unicode="*" horiz-adv-x="598" d="M133 193q0 78 33 116q6 14 27 31l49 35l-43 31q-16 14 -27 36q-10 33 -14 70q0 86 69 141q60 39 123 39q45 0 77 -7t67 -34q35 -23 47 -52.5t15 -43.5t3 -39q0 -55 -24 -86l-31 -33l-29 -22q16 -2 32.5 -16.5t35.5 -41.5q39 -39 39 -124q0 -84 -84 -148q-55 -45 -150 -45 q-90 0 -153 57q-61 61 -62 136zM219 201q0 -55 33 -82q14 -14 35 -25l61 -16q35 0 47 4l43 18q59 37 60 103q0 29 -7.5 51t-21.5 37q-43 47 -119 47q-63 0 -108 -53l-17 -37zM242 514l6 -43q10 -29 37 -47q25 -12 63 -18q74 0 105 43q23 29 22 63q0 27 -10 45 q-6 20 -23.5 33.5t-36 19.5t-47.5 6l-47 -6q-20 -4 -37 -20q-18 -12 -26 -33z" />
<glyph unicode="+" horiz-adv-x="0" d="M-342 870v78h74v62h78v-62h71v-78h-71v-67h-78v67h-74z" />
<glyph unicode="," horiz-adv-x="358" d="M-145 -106q0 12 8 18q18 18 63 18l41 -10q43 -18 43 -53q0 -23 -14 -48.5t-59 -66.5v-35q31 0 47 11q49 27 90 116q6 -14 12 -25.5t23 -31.5q37 -49 92 -49v745q0 10 -29 26.5t-80 29.5l35 88q41 88 76 88l33 -10l100 -41l37 4q-12 -53 -30.5 -74t-41.5 -25q-12 0 -35 13 l-14 12q-16 14 -37 20l-31 7l-28 -54l63 -20q61 -25 66 -49v-797q-29 -45 -72 -45q-25 0 -49 12l-35 19q-18 6 -37 39l-14 30l-10 -24q-14 -29 -50 -49q-49 -25 -94 -25q-35 0 -57 25l-12 24v187zM-74 -129v-45q37 12 39 27q-14 12 -26 16z" />
<glyph unicode="-" horiz-adv-x="552" d="M182 260v80h363v-80h-363z" />
<glyph unicode="." horiz-adv-x="694" d="M328 596q0 45 17 85t73 40l22 -6q16 -6 33 -25q12 -10 16 -37l-6 -24q-12 -31 -39 -33l-26 6l-23 14l-14 15q0 -31 5 -44.5t30 -31.5q6 -6 33 -16l51 -7q33 0 56.5 8.5t39.5 34.5v115h88v-692h-88v512q-16 -29 -49 -41l-78 -8q-49 0 -80 28q-61 43 -61 107z" />
<glyph unicode="/" horiz-adv-x="305" d="M143 78q0 18 19 35q18 12 45 12t45 -10q29 -18 29 -58q0 -27 -13 -57q-19 -56 -80 -72l17 41l-8 27q-4 4 -7 6q-8 8 -22 16q-25 18 -25 60z" />
<glyph unicode="0" horiz-adv-x="671" d="M119 377q0 145 73.5 248.5t198.5 103.5q123 0 197 -106q68 -98 67 -254q0 -154 -73.5 -263.5t-198.5 -109.5q-121 0 -195 110q-70 115 -69 271zM221 369q0 -184 47 -258q41 -66 117 -66q98 0 141 107q16 43 24.5 93t8.5 124q0 127 -31 206q-43 106 -133 107 q-90 0 -137 -104q-37 -84 -37 -209z" />
<glyph unicode="1" horiz-adv-x="780" d="M147 461l5 37l8 37l12 32l18 29q29 33 64 59l51 31l31 10l47 13l78 8q45 0 69 -8q25 0 45 -11l31 -12l25 -12q6 -2 11 -4t13 -8l27 -19l47 -53l21 -35l16 -51l10 -49l2 -33q0 -119 -41 -207q-18 -37 -45 -70l-20 -28q-12 -20 -35 -31l-37 -25l-35 -20l-76 -25l-63 -8 l-61 -6l-60 2l-67 12l-9 25q172 0 277 53l45 29l33 27q20 12 39 43l16 22l18 31l25 53l4 41l4 43l-2 31l-6 35l-10 38l-15 31q-10 23 -36 51q-20 27 -48 43q-59 35 -133 35q-33 0 -49 -8l-53 -16q-41 -14 -70 -68l-20 -49l-4 -47v-31l8 -55q0 -23 16 -45l43 -39 q29 -16 52.5 -24.5t54.5 -8.5t47 15.5t18 31.5q0 16 -8 25.5t-29 15.5q-37 0 -45 9t-18 36q0 14 12 39q0 10 31 35l55 14q39 0 72 -26.5t33 -61.5q0 -78 -54.5 -129t-148.5 -51q-90 0 -158 55q-43 37 -67 109q0 18 -2 40.5t-9 47.5z" />
<glyph unicode="2" horiz-adv-x="765" d="M94 823l23 39q23 31 43 31q41 0 59 -19q14 -18 14 -73v-676l7 -19q23 -33 166 -32l43 2h36h41q25 0 85.5 6t62.5 33v438l-23 41q-10 16 -37 33l-65 -70q-16 -18 -33 -22l-35 34q-41 43 -57 45q-12 0 -33 -20q-14 -18 -20 -41v-82q35 0 59 -14q59 -31 59 -111 q-12 -84 -40 -121q-4 -10 -27 -22l-33 -8q-61 0 -86 47l-14 57v311q0 16 49 64q47 41 76 45q25 0 55 -37l51 -57l15 -7q10 0 50 50.5t64 50.5q18 0 32.5 -7t43.5 -61l39 -80v-479q0 -51 -55 -74q-43 -14 -101 -14l-295 -2q-78 0 -124 18.5t-46 65.5v649q0 31 -24 66z M379 276q18 0 30.5 21.5t12.5 48.5q-6 41 -43 41v-111z" />
<glyph unicode="3" horiz-adv-x="884" d="M147 41v524q18 55 35 78q55 78 152 78l24 2q35 0 70 -14q53 -23 125 -82q33 53 86 82q18 8 35.5 12t42.5 4h22l66 -25q68 -39 76 -125v-575h-88v565q-18 55 -43 74l-58 20q-45 0 -86 -53l-33 -53v-553l-18 -2l-74 2l-2 567q-23 37 -69 62l-43 14q-43 0 -91 -41l-36 -41 v-270q43 0 86 -54.5t43 -89.5q0 -57 -32 -104t-85 -47q-27 0 -59.5 12t-45.5 33zM242 88q45 0 45 43q0 20 -11 38.5t-34 18.5v-100z" />
<glyph unicode="4" horiz-adv-x="659" d="M143 164v29v296q0 37 9 62q25 80 106 111l92 40q102 49 144 82l30 25q31 31 31 63l86 15l2 -25q0 -49 -20.5 -81.5t-69.5 -57.5q-23 -10 -41 -18.5t-41 -22.5l-63 -37q-98 -23 -142 -82q-27 -41 -26 -88l2 -18l-2 -285q0 -27 8 -43l24 -35l25 -12q43 -14 86 -14l57 4h25 q41 0 55.5 7t16.5 23l-60 64l-31 39l-24 43l-6 53q0 31 6 51.5t24 44.5q35 41 101 41l45 -2l29 -14q35 -25 34 -55q0 -14 -14 -31l-20 4l-29 6q-25 0 -47 -14q-45 -35 -45 -70q0 -27 20 -55l51 -45l21 -17l63 -53q-6 -33 -16 -45q-33 -45 -113 -45h-217q-94 0 -137 61 q-29 45 -29 101z" />
<glyph unicode="5" horiz-adv-x="661" d="M143 133l2 23v319l9 6q12 8 26 13q37 12 43 22q-10 14 -18 19l-31 24q-25 18 -24 62q0 27 14 51t50 36.5t75 12.5l35 -4q27 -6 47 -23q25 -12 30 -35l7 -38q0 -37 -27 -64l-27 -18l41 -21l43 -10q41 0 73 15.5t36 43.5l-12 205q0 23 26.5 46.5t67.5 23.5l20 -13 q16 -14 21 -36q-2 -6 -6.5 -11.5t-16.5 -15.5l-39 -25l6 -84l7 -92q-12 -61 -60 -94q-35 -25 -80 -25l-30 -2l-37 5l-117 28q-14 0 -34.5 -13t-22.5 -30l-2 -260q0 -55 26 -82q29 -23 78 -22l29 -2l32 -2h37l35 2l27 12l-27 22l-24 27l-21 41l-6 53l6 51q6 23 25 43 q39 45 96 45l45 -2l29 -14q35 -25 34 -55q0 -14 -14 -31l-20 4l-29 6l-33 2l-26 -6q-16 -12 -27 -37l-6 -43q0 -27 20 -55q16 -16 64 -35l35 -6l4 -10l20 -8q-6 -25 -18 -37q-35 -37 -115 -37h-65h-130q-96 0 -145 51q-31 35 -31 84zM236 618q6 -35 51 -34q39 0 39 39 q0 35 -47 34q-43 0 -43 -39z" />
<glyph unicode="6" horiz-adv-x="702" d="M133 819q6 14 12.5 22.5t34.5 18.5l41 10l37 -8l25 -6q14 -4 24 -16q14 -6 33 -43q6 -10 6 -27l-6 -51q-10 -27 -16 -31l-19 -41l41 25l47 20l45 17l41 6q12 0 20.5 -2t37.5 -13q16 0 30 -8l39 -24l27 -25q12 -10 18 -29l17 -32l10 -43l8 -50q12 -80 12 -118v-52v-26 q0 -14 -4 -35l-14 -68l-8 -32q0 -12 -19 -43q-6 -10 -10 -17q-14 -14 -20 -22q-37 -31 -93 -56l-53 -14l-65 -6q-70 0 -144.5 33t-99.5 76l-21 61l-4 68q0 39 13 63l22 39l27 31q47 55 135 55q61 0 104 -37q18 -18 31.5 -45t13.5 -55l-4 -31q0 -14 -30 -45q-18 -25 -54 -25 q-18 0 -43.5 12.5t-25.5 45.5q0 20 18 37q23 14 56 14q37 0 36 35q0 18 -14 35l-16 8l-27 6q-31 4 -55 -10q-25 -6 -47 -41q-37 -47 -39 -78v-59q0 -29 10 -41l22 -43l9 -13l22 -12q6 -12 23 -18l28 -9l41 -6l41 6l45 11q16 4 31 18l33 29l39 84l8 39l8 38l2 46l-2 61l-2 37 l-6 55l-10 43q0 14 -8 25q-8 39 -52 71l-18 19q-10 12 -39 12l-49 -6q-18 -6 -27 -10l-24 -15l-25 -20l-53 -43l-49 20q-23 8 -29 27l12 18l11 23l16 27l8 32q0 16 -8 39l-10 17l-9 18q-6 12 -24 19l-33 2l-24 -2q-10 0 -17 10z" />
<glyph unicode="7" horiz-adv-x="776" d="M143 113v487q0 31 66 90q35 29 57 33q29 0 60 -23l59 -45l16 -6q12 8 21 13q29 18 56.5 39.5t51.5 21.5q18 0 36 -7t42 -50l35 -72v-461l8 -31q6 -10 19 -14q12 0 24 37v649q-12 18 -53 47t-43 43q0 12 14 25l33 20l31 6q39 0 68.5 -38.5t29.5 -104.5v-635 q0 -68 -27.5 -101.5t-70.5 -33.5t-84 43q-37 43 -37 96l2 412q-23 33 -49 53q-16 12 -39 17l-55 -41q-35 -25 -54 -29l-43 41q-25 25 -38 24q-12 0 -31 -19t-25 -46v-254q43 -12 62 -27q61 -43 61 -120q-12 -72 -26.5 -97t-43.5 -43l-24 -8q-70 0 -94 49zM229 84 q25 0 36 19.5t16 50.5q-7 43 -52 43v-113z" />
<glyph unicode="8" horiz-adv-x="704" d="M145 74v446q0 68 12.5 93.5t41.5 41.5l34 23l48 18l61 15l61 4l60 -4q12 -4 28.5 -10.5t28.5 -12.5l45 -22l41 -43v178q0 31 35 53l37 12l33 6q23 0 47 -8q16 0 24 -14l-10 -12l-29 -11q-16 -6 -45 -30v-176q0 -20 -4 -31l-22 -23l-19 -8l-43 -2h-22q-31 0 -70 41 q-33 39 -110 39q-43 0 -82 -8q-39 -12 -50 -29l-28 -45q-10 -23 -15 -45v-354q0 -14 11 -31l16 -29q6 -6 37 -12q16 0 41 16l33 31l10 8l4 17v55h111l2 -59l10 -27q12 -25 39 -37q16 0 24 -4l17 2q12 0 24 27v143q-25 4 -55 31l-37 41q-12 12 -16 43v28l14 29l19 23l32 18 q25 12 70 12h20l11 -4q10 -8 14 -12q10 -4 12 -21l2 -34v-332l-6 -21q-4 -14 -15 -26.5t-42 -24.5l-68 -6q-20 0 -39 16l-36 37l-52 58l-28 -27l-68 -55l-35 -23l-41 -6h-24q-12 0 -29 4q-14 0 -33 16l-14 21zM561 371l17 -23l12 -18l20 -15v107l-22 -2l-13 -10 q-10 -10 -14 -39z" />
<glyph unicode="9" horiz-adv-x="634" d="M141 217l2 41q0 145 97 164l84 6l-56 37q-29 25 -28 70l12 59l16 51q23 41 70 60l39 4q33 0 72 -23q41 -18 118 -80l-32 88q-6 18 -19.5 61.5t-13.5 67.5l6 29q18 45 40.5 61.5t59.5 16.5l43 -60l-26 -14q-27 -23 -27 -61l4 -29l2 -27l23 -61q18 -18 18 -53 q0 -41 -22.5 -76t-63.5 -35l-82 49q-74 51 -102 51q-10 0 -27 -30l-20 -60q0 -20 39 -51l75 -41l107 -29q37 -6 51 -16l-10 -22l-27 -48l-119 35q-72 0 -135 -12t-73 -49v-111l6 -37q6 -18 16 -28q20 -27 84 -27l64 2q0 82 32 123q20 31 60 39l28 2q29 0 41.5 -2t30.5 -14 q41 -25 41 -82l-2 -35q0 -29 -21 -55q-53 -68 -196 -68h-49q-63 0 -106.5 11t-82.5 38q-20 23 -32 74zM467 84l35 6q35 12 47 39q0 47 -12 51q-16 0 -43 -35.5t-27 -60.5z" />
<glyph unicode=":" d="M-377 1051q0 47 55 47q25 0 46.5 -14.5t21.5 -53.5q0 -29 -10 -57q-15 -54 -74 -72l16 41l-6 31l-20 18q-29 18 -29 60zM-225 1047q0 49 55 49q29 0 43 -15q27 -14 27 -53l-4 -29l-9 -30q-22 -58 -73 -74l16 41l-6 29l-27 24q-23 16 -22 58z" />
<glyph unicode=";" d="M-293 967q0 18 19 34q18 12 45 13q27 0 45 -10q29 -18 28 -58q0 -27 -12 -57q-21 -56 -80 -72l17 39q0 14 -5 23l-30 26q-27 20 -27 62z" />
<glyph unicode="&#x3c;" d="M-461 -190q0 35 23.5 62.5t64.5 27.5l37 -9q45 -16 62 -53l18 31q31 31 82 31q43 -6 63 -21q33 -29 33 -82v-166h-63v166q-4 27 -14.5 35t-32.5 12h-19l-14 -6q-6 -2 -12.5 -6t-16.5 -16l-20 -27q-23 33 -41 43l-33 10l-18 2q-16 0 -25 -10l-14 -33v-45l49 -2 q25 -6 24 -53q0 -20 -10 -39q-18 -31 -53 -31l-27 4l-28 13l-9 10l-6 6v146zM-399 -289v-37q30 0 30 27q-4 6 -30 10z" />
<glyph unicode="=" horiz-adv-x="552" d="M156 143v80h364v-80h-364zM156 338v78h364v-78h-364z" />
<glyph unicode="&#x3e;" horiz-adv-x="276" d="M141 63q0 27 17.5 45.5t46.5 20.5q23 0 43 -18.5t22 -47.5q0 -63 -65 -63q-23 0 -43.5 18.5t-20.5 44.5z" />
<glyph unicode="?" horiz-adv-x="598" d="M158 588q0 57 48 105t116 48q80 0 135 -47q68 -55 67 -141q0 -94 -104 -186l-96 -78q-18 -16 -29 -43l-6 -43l-10 57q0 51 47 105q104 120 104 188q0 45 -30.5 86t-71.5 41q-63 0 -64 -41l-6 -35l2 -6q6 -10 33 -12q25 0 26 -33q0 -25 -26.5 -44.5t-63.5 -19.5 q-43 6 -57 35t-14 64zM233 72q0 33 19.5 56.5t52.5 23.5t55 -23q25 -18 25 -51t-18.5 -53.5t-53.5 -24.5q-33 0 -56.5 18.5t-23.5 53.5z" />
<glyph unicode="@" horiz-adv-x="598" d="M135 0q12 113 33 156q33 70 147 137l103 57q25 14 36 22.5t25 24.5q33 39 33 82q0 63 -45 99t-92 36q-72 0 -109 -45q-33 -45 -33 -118h-81q0 63 10 94q18 59 67 100q23 18 63 31.5t77 13.5h24q86 0 135 -47q49 -43 66 -117l4 -43q0 -59 -41 -115.5t-94 -84.5l-113 -60 q-29 -10 -67 -47q-55 -49 -56 -94h367v-82h-459z" />
<glyph unicode="A" horiz-adv-x="376" d="M-4 627l49 47q35 29 66 41l32 -8q27 -8 93 -54l8 -10q6 -6 20 -10q12 0 12 24l5 52q0 55 -17 94q-6 12 -10 16q-2 18 -31 37l-12 6q-27 16 -29 41q4 23 15 31l20 14l23 4l20 2q18 0 43 -17t25 -38v-899h-92v506q-12 59 -70 98q-14 10 -51 27q-14 0 -62 -27q-12 -4 -20 -9 t-29 -20z" />
<glyph unicode="B" horiz-adv-x="649" d="M143 115v491q0 18 47 66q47 43 78 47q25 0 62 -37l57 -57l16 -7q12 10 21 17q25 23 53.5 51.5t54.5 32.5q20 0 37 -10q16 -6 54 -78l24 -58v-573h-80v553q-20 41 -31.5 56.5t-31.5 25.5l-62 -57q-43 -43 -59 -43l-53 49q-35 37 -51 41q-12 0 -33 -20.5t-27 -45.5l2 -272 q51 -6 70 -17q72 -31 71 -112q-14 -80 -49 -127l-32 -29l-31 -2q-70 0 -94 51zM229 96q53 0 54 58q-7 39 -54 39v-97z" />
<glyph unicode="C" horiz-adv-x="645" d="M84 530l14 41q18 49 64 107l33 20q35 16 67 21q33 0 94 -55l21 -11q18 -8 23.5 -11t23.5 -19q29 -12 44 -16.5t36 -6.5q31 0 49 21.5t18 50.5q-31 59 -73 86l-33 14l-23 12q-18 14 -20 33q0 29 61 64q47 -20 76 -43q76 -63 76 -160q0 -86 -51 -119q-34 -22 -96 -22h-5 h-37l-22 6q-51 8 -88 37l-14 14q-45 31 -70 35q-18 0 -31 -11l-12 -14l-14 -24l-7 -21l17 -14q34 -29 69 -45v-353q0 -43 25 -43q12 0 51 58l17 14q20 12 47 17q29 0 61 -27l14 -27q16 -25 33 -28q35 0 35 55v280h78v-383q0 -27 -18.5 -46t-57.5 -19l-33 2q-31 12 -63 66 l-27 51l-12 14l-10 4q-14 -6 -21 -10l-12 -14l-12 -21q-31 -51 -76 -88l-39 -4q-43 0 -61 35l-9 37v417q-25 18 -65 33z" />
<glyph unicode="D" horiz-adv-x="595" d="M143 479v166q0 18 19.5 36.5t38.5 25.5l20 8l29 6q29 0 60.5 -17.5t62.5 -74.5l8 26q35 63 123 64l31 -2q43 -6 53 -21.5t10 -58.5v-193q0 -35 -104 -90l-121 -49l-88 -24q-35 0 -44.5 -11.5t-13.5 -36.5l2 -14v-129q4 -14 11 -20q18 -23 57 -23q23 0 45 8q59 0 119 54 q12 10 20 20q16 23 27 35v137l82 37v-412l-27 -37q-35 -37 -74 -47l-45 52q14 0 48 38l14 21v127q-18 -18 -88 -49q-18 -8 -47 -17.5t-47 -11.5q-88 0 -131 21.5t-43 64.5v186q0 51 38 52l84 14q37 6 72 20l98 35q68 25 68 45v193q-4 14 -8 18l-19 8l-18 -8q-35 0 -72 -35 q-14 -10 -31 -34q-4 10 -38 34l-62 31l-22 4q-18 0 -21 -26v-129l12 -17q10 -14 29 -16q23 0 31 33l-10 18l6 10l16 8q23 0 42.5 -7t19.5 -31q0 -14 -17 -41q0 -25 -37 -37l-88 -8q-53 6 -66.5 19t-13.5 52z" />
<glyph unicode="E" horiz-adv-x="387" d="M66 940q10 82 100 82q29 0 37 -27q6 -12 8 -24.5t2 -40.5q0 -12 -14 -19l-33 -4l-19 2q4 -23 37 -39l45 -18q31 0 60 22q25 25 30 58q0 43 -36 86l-66 59l70 37q29 -8 67.5 -59t38.5 -107q-6 -63 -37.5 -103t-91.5 -52q-84 0 -141 36.5t-57 110.5zM80 541l49 88 q57 88 92 88l33 -10q20 -8 36.5 -13.5t61.5 -27.5l37 4q-12 -51 -30.5 -75t-41.5 -24q-10 0 -32 13l-15 12q-31 18 -51 25l-37 8l-22 -33l-15 -27l64 -18q63 -25 65 -47v-258l60 -15q35 -6 47 -67q0 -59 -22.5 -105.5t-61.5 -46.5q-31 -10 -61 -14q-25 0 -31 4l-15 10v473 q0 14 -24.5 27.5t-85.5 28.5zM274 31l21 41q20 55 20 88q-4 12 -32 12l-9 -4v-137z" />
<glyph unicode="F" horiz-adv-x="690" d="M135 553q0 14 9.5 33.5t19.5 36.5l69 94q51 0 97.5 -22.5t97.5 -71.5q12 0 59.5 48t67.5 48q25 0 44 -26.5t44 -39.5l16 -8q20 0 31 6q0 -33 -35 -61q-33 -23 -63 -27q-27 6 -62 43l-12 17q-25 -4 -63 -39l-35 -35q-29 23 -54.5 39t-48.5 28q-47 23 -73 27l-33 -51 l-18 -37l28 -27q35 -27 68 -32v-369l6 -23q8 -20 27 -22q16 6 22 10l29 33l18 18q22 19 47 21q8 -2 13.5 -3t17.5 -14l29 -22l14 -29q16 -25 33 -28q20 0 20 51v65q-59 20 -96 62l-23 35q0 33 5 45q23 104 108 116q29 0 53.5 -17t24.5 -46v-328q-8 -23 -25 -33 q-29 -18 -73 -18q-29 12 -60 51l-18 27q-6 18 -15 20l-10 4l-18 -12l-15 -10l-57 -80l-31 -2q-47 0 -77 25q-12 10 -29 55v405q-31 16 -51 33l-19 19zM502 295l10 -23q8 -16 47 -34l4 4v116l-10 2q-18 0 -31.5 -13t-19.5 -52z" />
<glyph unicode="G" horiz-adv-x="757" d="M147 539q6 18 14.5 42.5t20.5 45.5q45 88 78 88q23 -4 30 -6t21 -11l80 -34l37 4q-12 -49 -30.5 -69.5t-41.5 -20.5q-10 0 -32 12l-15 12q-14 12 -43 23l-37 8l-28 -64q20 -6 41 -10q16 -6 30 -12q74 -29 74 -53l-2 -107h277v98q-4 6 -7 9q-8 10 -20 16q-27 14 -96 31 q6 18 14 42.5t20 45.5q45 88 78 88q23 -4 30 -6t22 -11l79 -34l37 4q-12 -49 -30.5 -69.5t-40.5 -20.5q-14 0 -33 12l-15 14l-38 19l-29 8l-31 -64l72 -18q70 -20 72 -47v-477q-14 -14 -29 -21l-47 -8l-23 2l-14 4q-35 0 -55 64q-8 29 -14.5 61.5t-6.5 58.5q6 33 19.5 46.5 t37.5 13.5l29 -4l21 4l-2 82h-279v-307q-12 -14 -29 -21q-25 0 -37 -4l-22 2l-14 4q-35 0 -56 64q-8 29 -14 61.5t-6 58.5q6 33 19.5 46.5t37.5 13.5l29 -4h12v245l-31 23zM223 176q0 -37 10 -67q18 -61 33 -64v135l-26 6q-11 0 -17 -10zM575 176q0 -51 27 -106l14 -25v135 l-26 6q-13 0 -15 -10z" />
<glyph unicode="H" horiz-adv-x="442" d="M131 172q0 61 43.5 104t106.5 43q61 0 104 -43t43 -104t-44 -105t-103 -44t-104.5 43t-45.5 106zM131 528q0 57 43 105q20 20 47 32.5t60 12.5q57 0 102 -45t45 -105q0 -61 -44 -105t-103 -44t-104.5 43t-45.5 106zM217 166q0 -23 19 -39q16 -10 45 -14q23 0 38 18 q10 16 15 45q0 23 -19 39q-16 10 -45 14q-53 0 -53 -63zM217 524q0 -23 19 -39q16 -10 45 -14q23 0 38 18q10 16 15 46q0 20 -19 36q-16 10 -45 15q-53 -1 -53 -62z" />
<glyph unicode="I" d="M-569 922q0 49 45 96q53 55 155 69q78 -12 119 -26q129 -43 180 -131q6 10 7 31l-5 34q0 12 -10 29l-16 18q-16 18 -23 39q0 10 13 21l30 8q12 0 25 -12l16 -25q6 -12 6 -33l4 -45q0 -57 -13 -84.5t-42 -42.5h-418q-41 0 -61 27zM-496 926h340q-39 41 -127 71l-75 19 q-59 0 -105 -45z" />
<glyph unicode="J" d="M-571 -162l8 17q18 18 57 30q84 0 127 -41l70 -73l26 -29q39 -29 82 -29l33 2l16 15q14 18 15 39q0 10 -31 14q-31 0 -39 33q0 39 17.5 58.5t50.5 23.5q33 0 56.5 -22.5t31.5 -57.5q0 -37 -2 -52.5t-15 -35.5q-14 -33 -45 -52l-41 -16l-43 -8q-84 0 -143 49l-20 21 q-41 53 -77 76.5t-61 23.5q-14 0 -28 -8l-11 -11z" />
<glyph unicode="K" horiz-adv-x="645" d="M115 551q0 18 20 57q10 18 29.5 45t48.5 60q47 0 96 -25q27 -12 47.5 -26.5t51.5 -43.5l81 62q37 31 56 31q16 0 33 -13l53 -51l6 -6q23 0 33 8q0 -37 -21.5 -64.5t-48.5 -29.5q-27 6 -61 41l-31 31q-25 -6 -70 -45l-41 -41q-66 51 -125 75l-59 15q-37 -53 -41 -78 l21 -23q29 -25 59 -34l61 14q35 6 84 6h25q59 0 104 -14q51 -12 92 -58v-446h-81v428l-70 29q-37 12 -82 12q-41 0 -90 -18l-35 -19l-2 -170l4 -121q37 43 56.5 56.5t43.5 13.5q18 0 32 -18.5t16 -43.5q0 -18 -13 -30l-24 -8l-27 10l-31 10q-20 -2 -32 -37l-17 -63l-10 -29 h-80v444l6 11l33 24q-25 4 -74 37l-22 16z" />
<glyph unicode="L" horiz-adv-x="1003" d="M143 483q0 78 15 115q4 14 16 25l-6 8q0 20 65 53q84 39 181 39q125 0 168 -14q70 -23 69 -101l-6 -51q-12 -35 -43 -63h-27q-35 0 -57 6q-12 6 -16 30l-6 31q0 37 32 37h13l28 -12v41q0 25 -28 32l-60 9l-73 4q-57 0 -103 -29q-17 -9 -37 -29q-25 -18 -39 -53 q-10 -35 -10 -74l2 -67l8 -51q14 -39 113 -58l98 -10l43 4l4 4l-12 29q-12 25 -12 47q0 25 19.5 43t74.5 25q41 0 71.5 -30t30.5 -81q-8 -59 -47 -78q-8 -4 -12 -7t-4 -5v-174q0 -41 -61 -66q-23 -6 -46.5 -10t-56.5 -4l-45 2q-90 0 -149 23q-23 8 -45 22v166l12 6l14 2 q10 0 70 -31v-104l6 -12q20 -16 96 -17l27 -2q23 0 35 2t36 15l31 18v166l-14 4l-82 -2q-90 0 -137 8q-98 14 -131 58l-11 86zM422 -193q0 20 3 33t17 39l9 15l22 8l33 4q33 0 55.5 -7.5t22.5 -43.5l2 -109q31 4 53 23q33 31 66 98l55 -72q34 -28 77 -28h3l-2 735 q0 12 -33 24l-84 27q6 18 14 43t21 45q45 88 78 88l38 -10q18 -6 33 -10q35 -12 74 -31l37 4q-12 -55 -30.5 -79.5t-41.5 -24.5q-14 0 -33 12l-14 14q-18 12 -53 19l-43 8l-29 -64l76 -18q76 -25 78 -45v-803q-12 -18 -33 -24.5t-49 -6.5q-31 0 -51.5 9.5t-32.5 21.5 q-18 6 -37 37l-14 33l-11 -31q-14 -35 -49 -57q-55 -25 -94 -25q-33 0 -47 20q-6 12 -10 50l-2 98l-19 12l-12 -18q0 -12 -8 -19l-8 -8l-15 4zM528 362q0 -22 33 -49q41 25 41 45q0 12 -27 27l-14 6q-16 -4 -24 -10z" />
<glyph unicode="M" d="M-328 942q0 47 36 80t83 33q49 0 84 -32t35 -81q0 -45 -35 -76.5t-84 -31.5t-84 29.5t-35 78.5zM-252 938q0 -43 49 -43q41 0 41 49q0 43 -49 43q-25 0 -33 -16z" />
<glyph unicode="N" horiz-adv-x="1122" d="M143 39v579q0 35 33 66t107 31l65 2l39 -2q51 0 93 -25.5t42 -79.5v-524q0 -10 31 -14l12 2q14 8 19 14l57 51l59 -55l7 -12l6 -2q10 8 12 16l2 8l2 254v277q0 35 37 65.5t111 30.5h47h41q47 0 98 -29.5t51 -81.5l2 -608h-24h-31q-16 0 -33 4l2 623q-12 25 -59 39l-43 6 q-47 0 -84 -19q-29 -18 -33 -37v-571q-6 -18 -18.5 -31.5t-26.5 -13.5l-41 2l-23 8l-67 76l-66 -68q-33 -12 -69 -16q-29 0 -45 16l-13 19v594q-14 25 -55 41l-37 6h-18q-41 0 -68 -14l-39 -35v-381l54 -19q55 -18 63 -81q0 -27 -19.5 -66t-58.5 -68q-10 -4 -32.5 -9 t-34.5 -7q-31 0 -40.5 10t-13.5 29zM229 57q10 0 39 49q12 27 17 64q-10 10 -19 14l-30 15l-7 -4v-138z" />
<glyph unicode="O" horiz-adv-x="423" d="M-274 922q0 49 45 96q53 55 155 69q49 0 74 -8q80 -18 143 -69l9 18q0 14 -17 25l-24 16q-27 20 -33 39q2 4 4 9t13 13.5t28 8.5q12 0 24 -13l21 -18q18 -20 20 -41l5 -33q0 -31 -13 -49l31 -31l14 -24q16 27 21 55l-2 25l-8 14l-17 18q-16 18 -22 39q0 10 12 21l31 8 q14 0 24 -10l12 -27l9 -33q0 -51 -13.5 -101t-54.5 -71h-418q-41 0 -61 27zM-201 926h340q-39 41 -127 71l-75 19q-59 0 -105 -45zM-117 -98h84v-142l21 -18q35 -20 80 -21l32 3l19 -3q43 0 80 12.5t39 43.5v710l-7 7q-10 10 -22 16q-35 18 -109 33l31 88q37 88 74 88 l37 -12l77 -31q20 0 33 26l4 29q0 20 -11 37.5t-40 19.5l-59 -8l-23 8q-18 16 -18 43q0 20 10 37q12 33 64 33l38 -4q43 -8 66 -45t23 -86v-23q0 -31 -5 -43q0 -18 -16 -43q-12 -51 -39 -71q-16 -12 -45 -13q-10 0 -33 13l-14 12l-39 20l-29 9l-30 -56l80 -26q80 -31 86 -58 v-772q-12 -27 -29 -37q-48 -38 -123 -38h-4l-62 4l-49 -2q-78 0 -125 24q-25 12 -45 58z" />
<glyph unicode="P" horiz-adv-x="704" d="M121 125q0 43 16 70q25 41 92 81v56v114l7 11l32 24q-25 4 -73 37l-23 17l-4 18q0 14 9 33.5t20 36.5l69 94q51 0 97.5 -22.5t97.5 -71.5q12 0 61 43t76 47q16 0 33 -13l53 -51l6 -4q20 0 33 6q0 -35 -21.5 -63.5t-48.5 -30.5q-27 6 -61 41l-31 31q-25 -4 -69 -45 l-41 -41q-45 33 -103 65q-47 25 -82 29q-37 -53 -41 -78l21 -24q29 -29 59 -37l62 14q35 6 84 6h24q59 0 105 -14q51 -12 92 -58v-446h-82v424l-70 29q-37 12 -82 12q-41 0 -90 -19l-35 -18v-309v-78q-6 -27 -23.5 -35t-47.5 -12l-25 2l-14 4q-31 18 -56.5 53t-25.5 72z M182 100q0 -18 19 -24q16 -3 28 -13v130q-2 -6 -5 -10.5t-18.5 -20t-21.5 -43.5z" />
<glyph unicode="Q" horiz-adv-x="1236" d="M143 39v600q0 33 63.5 53.5t162.5 20.5q23 -2 49 -5t53 -12q104 -25 104 -71v-549l39 -10l86 -11l48 6q18 6 40 29l3 397q0 10 -29 26.5t-80 29.5q6 18 14.5 42.5t20.5 45.5q45 88 78 88l32 -10q20 -8 37 -13.5t62 -27.5l37 4q-12 -51 -30 -65.5t-42 -14.5q-14 0 -33 12 l-14 12q-16 14 -39 21l-35 6l-31 -92l66 -14q66 -23 65 -68l2 -389l21 -8q59 -25 100 -25l58 6q23 6 41 27l2 407q0 12 -29 25.5t-88 30.5q6 18 14 42.5t21 45.5q45 88 78 88l32 -10q20 -8 37 -13.5t62 -27.5l36 4q-12 -51 -29.5 -65.5t-41.5 -14.5q-14 0 -33 12l-14 12 q-20 12 -41 19l-37 6l-31 -88l72 -12q74 -23 74 -66v-407q0 -25 -48.5 -48.5t-109.5 -23.5l-78 -2q-41 0 -66 24l-12 25q-41 -25 -84 -37q-29 -6 -41 -8t-41 -2q-86 0 -170 37l-32 20v543q0 25 -46.5 40t-82.5 15q-43 0 -61.5 -3t-45.5 -13l-31 -19l-2 -315l27 2 q51 0 86 -18q51 -29 51 -101l-2 -28q-14 -45 -82 -107l-63 -51l-29 2q-31 6 -42 13t-28 26zM225 98q31 0 50.5 10.5t19.5 49.5l10 26q0 16 -24 27l-54 8z" />
<glyph unicode="R" horiz-adv-x="387" d="M137 543l49 88q57 88 93 88l32 -10q20 -8 37 -13.5t62 -27.5l36 4q-12 -51 -30.5 -75t-40.5 -24q-10 0 -33 13l-14 12q-31 18 -52 25l-36 8l-23 -33l-14 -27l63 -18q63 -25 66 -47v-735q0 -18 39 -32.5t90 -14.5l24 -3q39 0 76 12.5t37 41.5v114h74v-137l2 -18 q0 -41 -49 -60q-53 -16 -109 -16l-47 2l-49 -2q-109 0 -150 41q-18 18 -22 53v735q0 14 -24.5 27.5t-86.5 28.5z" />
<glyph unicode="S" horiz-adv-x="368" d="M-205 -141q0 29 43 45l43 8q27 0 47 -14l15 -17l-2 -147q0 -18 16 -27q33 -16 113 -16t114 22q18 10 23 33v342h-74v74h74l2 323l-6 15q-18 16 -103 41l35 88q41 88 76 88l39 -15l94 -38l37 6q-12 -53 -30.5 -75t-41.5 -26q-12 0 -35 13l-14 14l-39 20l-28 7l-29 -56 l65 -20q61 -25 66 -49v-332h74v-70h-74v-377l-6 -16q-25 -37 -109 -45l-45 -6l-47 -2h-31q-20 0 -37 4q-16 0 -28 6q-37 0 -66.5 11.5t-54.5 31.5l-14 16v41q-61 61 -62 99zM-166 -156l10 -8l19 -10v37l-19 -6q-6 -2 -10 -13z" />
<glyph unicode="T" horiz-adv-x="653" d="M143 479q0 78 15 115q4 14 16 24l-6 9q0 20 65 53q84 39 181 39q125 0 168 -14q70 -23 69 -101l-6 -51q-12 -35 -43 -64h-27q-35 0 -57 7q-12 6 -16 30l-6 31q0 37 32 37h13l28 -12v41q0 25 -28 32l-60 9l-73 4q-57 0 -103 -29q-17 -9 -37 -29q-25 -18 -39 -53 q-10 -35 -10 -74l2 -67l8 -51q14 -39 113 -58l98 -10l43 4l4 4l-12 29q-12 25 -12 47q0 25 19.5 43t74.5 25q41 0 71.5 -30t30.5 -81q-8 -59 -47 -78q-8 -4 -12 -7t-4 -5v-174q0 -41 -61 -66q-23 -6 -46.5 -10t-56.5 -4l-45 2q-90 0 -149 22q-23 8 -45 23v166l12 6l14 2 q10 0 70 -31v-104l6 -12q20 -16 96 -17l27 -2q23 0 35 2t36 15l31 18v166l-14 4l-82 -2q-90 0 -137 8q-98 14 -131 57l-11 86zM528 358q0 -22 33 -49q41 25 41 45q0 12 -27 27l-14 6q-16 -4 -24 -10z" />
<glyph unicode="U" d="M-399 -178l12 41q18 41 57 41l60 -6q20 -6 27 -21.5t12 -44.5l-7 -22l-45 -132l13 -14q14 -10 37 -14l24 6q10 6 10 10l11 25l4 16l16 66l2 45v65l-6 25h68q0 -41 4 -66v-67l-11 -78q-6 -37 -31.5 -67.5t-50.5 -35.5h-59q-59 0 -88 48l-10 24l39 117l2 16q-6 16 -10 21 l-5 4q-6 -4 -11 -8t-15 -19l-8 -12q-25 0 -31 8z" />
<glyph unicode="V" d="M-483 -233q6 41 32.5 58t92.5 17q31 0 62.5 4t82.5 17q90 18 156 45q0 -41 -25 -88q-47 -80 -166 -135l-59 -21l-70 -10q-49 0 -74 22q-33 29 -32 91zM-389 -252q0 -31 33 -33q51 0 105.5 28t107.5 87l-74 -20q-88 -20 -129 -21q-25 0 -33 -6t-10 -35z" />
<glyph unicode="W" d="M-588 922q0 49 45 96q53 55 156 69q49 0 74 -8q80 -18 143 -69l8 18q0 14 -16 25l-25 16q-27 20 -33 39l4.5 9t13.5 13.5t28 8.5q12 0 24 -13l21 -18q18 -20 20 -41l2 -33q0 -33 -10 -49l31 -31l14 -24q16 27 20 55l-2 25l-8 14l-16 18q-16 18 -23 39q0 10 13 21l30 8 q12 0 25 -12l16 -25q6 -12 6 -33q0 -53 -12 -94q-18 -53 -57 -78h-418q-41 0 -61 27zM-514 926h340q-39 41 -127 71l-76 19q-59 0 -104 -45z" />
<glyph unicode="X" horiz-adv-x="1003" d="M76 588q8 25 15 40t13 23q39 63 86 64l19 -2q27 0 41 -8q43 -18 43 -72l-2 -27v-170l2 -334l18 -20q33 -23 72 -23l55 4q35 0 62.5 9.5t44.5 38.5v378q-6 8 -13.5 13.5t-27 14.5t-32.5 13.5t-54 14.5q6 18 14 42.5t21 45.5q45 88 77 88l33 -10l99 -41l36 4 q-12 -51 -31.5 -72.5t-39.5 -21.5q-12 0 -33 14l-16 16q-27 20 -64 21l-29 -60l72 -30q70 -33 72 -60v-119v-63v-182l33 -27q10 -6 33.5 -16.5t49.5 -10.5q66 0 107 19q14 6 25 20l-3 189v63v138q0 12 -34 26q-10 4 -26.5 10.5t-61.5 18.5q6 18 14 42.5t20 45.5q45 88 78 88 l49 -18q18 -6 30.5 -10.5t51.5 -24.5l37 6q-12 -53 -31.5 -74.5t-39.5 -21.5q-14 0 -33 12l-17 14q-10 10 -34 17l-41 4l-29 -60q53 -6 74 -14q72 -18 75 -43l-2 -434q-12 -27 -28 -39q-51 -41 -140 -41l-43 2q-53 0 -90 18q-31 18 -32 45q-35 -27 -105 -47l-119 -12h-28 q-72 0 -114 18.5t-42 69.5v322q-76 18 -109 65q-29 47 -28 111zM154 573q4 -27 14 -43q12 -12 41 -20v129l-29 -10q-26 -15 -26 -56z" />
<glyph unicode="Y" d="M-379 -201l17 39q20 37 51 41q27 0 57 -29q12 -20 16 -43l-2 -10l-45 -108l-2 -8l11 -15l26 10l12 17q16 20 29 53l16 -37l21 -33l16 -8l11 15l12 30l6 66q0 31 -4 49l-12 47h69l6 -53l2 -60l-6 -69q0 -31 -27.5 -63.5t-50.5 -37.5q-25 6 -45 41l-16 35q-10 -41 -35 -61 l-24 -15q-37 0 -60 41l-12 41l33 88l4 17l-6 14l-8 6q-14 -12 -19.5 -25.5t-9.5 -21.5l-10 6l-15 19z" />
<glyph unicode="Z" horiz-adv-x="956" d="M145 27v612q0 92 138 92q33 -6 45 -14q47 -23 61 -64q0 18 17.5 41t56.5 37q47 0 74 -10q74 -18 73 -72v-397h28.5t43.5 -8q33 -2 35 -29q0 -57 12 -105.5t53 -48.5l33 2l27 15v418q-8 14 -15 18q-33 25 -116 47q6 18 14 43t20 45q45 88 78 88q23 -4 30 -6t21 -10l80 -35 l37 4q-12 -49 -30.5 -69.5t-40.5 -20.5q-14 0 -33 12l-15 13l-45 20l-36 8l-31 -65l80 -25q80 -29 80 -53v-428q0 -35 -27 -59q-27 -20 -70 -21l-39 -2h-24q-10 0 -35 12q-35 12 -43 51l-8 89q0 32 -44 32h-3l-17 -2v-149q0 -31 -28 -31l-60 6q-37 6 -64.5 48t-27.5 85 q0 37 7 64.5t24.5 35t44.5 11.5q16 0 22 -8v387q0 25 -11 32t-34 11l-24 -2q-25 -6 -43 -31l-27 -43q-57 70 -96 70l-27 8q-14 0 -26 -23l-13 -22v-361l13 -6l10 2l41 -14q31 -18 39 -70q0 -27 -13 -59q-25 -68 -98 -117l-18 -4h-21q-31 0 -35 25zM227 57l29 45q29 45 29 74 q0 14 -19 21l-39 8v-148zM487 139l9 -26q12 -25 41 -27v92q-14 0 -32 -10t-18 -29z" />
<glyph unicode="[" horiz-adv-x="980" d="M111 791q0 47 63 98q76 59 164 59l51 -6q84 -16 137 -63q53 -43 54 -125q0 -12 -18.5 -33t-31.5 -21l-4 11l-10 51q0 37 -41 54.5t-106 27.5q-78 0 -144 -33l-26 -18q45 -1 45 -52q0 -10 -16.5 -23t-32.5 -18q-12 0 -16.5 22.5t-10.5 28t-31.5 11.5t-25.5 29zM139 82v246 l45 20q62 23 148 31l104 29q68 18 72 36v134q0 43 -43 61l-90 20q-55 0 -104.5 -16t-51.5 -41v-27l2 -20q6 -2 8 -2q31 -10 50 -14q53 -6 53 -41q0 -29 -35 -49.5t-76 -20.5q-39 6 -57 31q-8 12 -12.5 26.5t-4.5 36.5v123q4 14 11 21q43 49 196 49l33 2q37 0 55.5 -2 t68.5 -15.5t85 -48.5v-221q0 -35 -86 -76l-104 -32l-107 -27q-37 -6 -63 -14q-4 0 -13 -5v-141q0 -39 32 -56.5t99 -17.5q57 0 109.5 30t54.5 48v178l82 45v-399q6 -27 27 -35q10 -2 20 -6q0 -2 2 -4q-10 -23 -39 -41q-20 -12 -55 -16l-20 2q-18 6 -19 26l6 52v108 q-14 -16 -78 -35l-94 -14q-98 0 -153 25q-33 12 -58 57zM469 -446l2 147q0 12 8 18q18 18 64 19q33 -4 43 -10q43 -18 43 -56q0 -18 -16.5 -45.5t-59.5 -68.5q0 -16 16 -25q33 -16 113 -16q43 0 61.5 3t42.5 13l50 37l2 928q0 12 -15 20q-25 16 -92 31l35 88q41 88 76 88 l32 -10l101 -41l37 4q-12 -53 -30.5 -73.5t-41.5 -24.5q-12 0 -35 12l-14 12q-16 14 -37 21l-31 6l-28 -53l63 -19q63 -25 66 -47v-965q0 -12 -6 -18q-27 -45 -107 -45l-47 -6l-49 -2l-66 2l-47 6q-55 0 -98 35z" />
<glyph unicode="\" horiz-adv-x="622" d="M106 506l29 112q27 86 96 95q45 0 78 -11q74 -18 142 -71l28 -10l31 -5q29 0 45 31q0 59 -39 92l-45 25q0 29 37 51l18 8l47 -37q49 -49 50 -104v-18q0 -55 -41 -84l-37 -19l-51 -8q-43 0 -74 16q-10 6 -14 11q-59 33 -109 51l-64 14q-27 -12 -45 -47l-10 -35l39 -14 q39 -18 45 -41l31 8l53 8l8 -2l8 -2h25q80 0 137.5 -18.5t93.5 -55.5v-446h-92v424q-76 41 -143 41q-53 0 -109 -25l-20 -12v-188q31 -10 47 -23q49 -37 49 -102q0 -35 -21.5 -61.5t-60.5 -45.5l-28 -6l-27 -2q-49 0 -51 27v415l14 13l37 26q0 18 -37 31l-37 8 q-16 0 -33 -14zM250 74q23 6 30 17t11 34q-6 23 -23 33l-18 8v-92z" />
<glyph unicode="]" horiz-adv-x="628" d="M143 78v246l45 20q62 23 148 31l104 28q68 18 72 37v133q0 43 -43 62l-90 20q-55 0 -104.5 -16t-51.5 -41v-27l2 -20q6 -2 8 -2q31 -10 50 -14q53 -6 53 -41q0 -29 -35 -49.5t-76 -20.5q-39 6 -56 31.5t-17 60.5v125q4 14 10 21q43 49 196 49l33 2q37 0 55.5 -2 t68.5 -15.5t85 -48.5v-221q0 -35 -86 -76l-104 -33l-107 -26q-37 -6 -63 -15q-4 0 -13 -4v-141q0 -39 32 -56.5t99 -17.5q61 0 111.5 32t52.5 48v176l82 45v-399q6 -27 27 -35q10 -2 20 -6q0 -2 2 -4q-10 -23 -39 -41q-20 -12 -55 -16l-20 2q-18 6 -19 26l6 52v108 q-14 -16 -77 -35l-95 -14q-98 0 -153 24q-33 12 -58 58z" />
<glyph unicode="^" horiz-adv-x="598" d="M133 365q0 49 4 71l19 78q31 92 90 134t129 42q39 0 69 -12q29 -8 56 -37q29 -27 41 -52.5t22 -72.5h-82q0 37 -24.5 62.5t-65.5 33.5l-22 2q-37 0 -68 -18t-55 -70l-23 -69q-12 -43 -12 -74l2 -25l49 45q43 37 109 37q84 0 137 -47q45 -39 63 -112l4 -29l3 -27l-7 -53 q-6 -49 -39 -88q-16 -18 -36.5 -36.5t-36.5 -29.5q-31 -18 -101 -18q-109 0 -163 80q-39 53 -50.5 118.5t-11.5 166.5zM221 227q0 -51 31 -100q41 -53 106 -53q70 0 113 57q25 35 25 82q0 57 -31 106q-14 23 -42 35.5t-65 12.5q-68 -6 -102 -48q-14 -14 -27 -40z" />
<glyph unicode="_" d="M-393 905q0 59 24.5 92t92.5 39q76 0 92 -28l16 -29l10 -8l19 -8q25 0 24 49q0 12 -12 37l-18 28q4 2 9 4t15 13q12 18 29 18q18 0 26 -10q20 -25 21 -62q0 -57 -21 -98q-27 -51 -69 -51q-43 0 -55.5 43t-59.5 43l-41 -4q-57 -6 -57 -41q0 -27 29 -27q18 0 28 25 q14 -4 28.5 -7t40 -13.5t29.5 -41.5q0 -25 -28.5 -32t-75.5 -7q-49 10 -67.5 26.5t-28.5 49.5z" />
<glyph unicode="`" horiz-adv-x="460" d="M178 549q6 18 14.5 42.5t20.5 45.5q45 88 78 88l39 -10q18 -6 32 -10q35 -12 74 -31l37 4q-12 -53 -30.5 -73.5t-41.5 -24.5q-12 0 -34 12l-19 14l-37 19q-14 6 -45 10l-28 -64l73 -18q74 -25 74 -47l2 -103h72v-98h-72v-260q0 -23 -17.5 -32t-54.5 -13l-36 2 q-37 0 -61.5 55.5t-24.5 108.5q6 43 28.5 56.5t54.5 13.5h9l8 2l6 6v61h-76v98h76l2 91q-4 6 -6 8q-8 10 -21 16q-27 14 -96 31zM254 162q0 -39 18.5 -84t28.5 -45v137l-31 4z" />
<glyph unicode="a" horiz-adv-x="339" d="M0 557v66l27 32q29 35 59 54l18 6l29 2l80 -23q84 -31 127 -86v-608h-96v567q-27 37 -57.5 52.5t-63.5 19.5l-23 -2q-14 -6 -18 -10l-19 -13z" />
<glyph unicode="b" horiz-adv-x="690" d="M92 539q6 18 14.5 42.5t20.5 45.5q45 88 78 88l33 -10l98 -41l37 4q-12 -49 -30.5 -69.5t-41.5 -20.5q-10 0 -33 12l-14 12q-16 14 -37 21l-31 6l-34 -68l65 -31q68 -37 68 -61v-119v-63v-211l49 -17q31 -8 52.5 -12t47.5 -4l55 8q16 6 66 39l-2 197v63v137 q0 18 -25.5 30.5t-83.5 25.5q6 18 14.5 42.5t20.5 45.5q45 88 78 88l33 -10q20 -8 36.5 -13.5t61.5 -27.5l37 4q-12 -49 -30.5 -69.5t-41.5 -20.5q-14 0 -32 12l-15 14q-16 14 -37 21l-30 6l-35 -74l67 -16q68 -23 68 -47v-443q-53 -43 -137 -55h-39t-45 -4q-113 0 -172 29 q-16 6 -45 30v428q0 10 -18.5 24.5t-90.5 31.5z" />
<glyph unicode="c" horiz-adv-x="628" d="M88 551q0 18 21 57q10 18 29.5 45t47.5 60q35 0 72 -13q59 -23 123 -82q10 0 57 50.5t72 52.5q25 0 49 -33q18 -25 31 -31l22 -10q20 0 31 6q0 -35 -25.5 -63.5t-56.5 -30.5q-27 6 -61 41l-31 31q-23 -2 -66 -45l-34 -41q-68 51 -127 76l-60 14q-37 -53 -37 -82l43 -31 q47 -31 78 -33v-409l41 -12l92 -15h23l45 2q17 5 35 17q29 10 28 47l-2 22v52q-63 25 -104 69q-8 8 -29 45q0 59 31 107q31 41 80 51q35 0 65.5 -13.5t32.5 -41.5v-347l-24 -30q-35 -31 -86 -31h-21h-82h-37q-100 0 -145 29q-14 6 -31 30v406l-8 10l-18 21l-60 34zM483 315 l6 -18q8 -16 31 -33l6 4v117l-12 2l-8 -6q-23 -27 -23 -66z" />
<glyph unicode="d" horiz-adv-x="608" d="M123 612q0 41 20.5 72t61.5 31l33 2q23 0 47 -15.5t37 -50.5q0 -47 -10.5 -78.5t-49.5 -40.5l33 -8l41 -2h22l43 8q47 0 78 25q45 41 45 141q0 25 -6 41l-12 21l-35 -6q-31 0 -44 12t-17 39l2 24l6 19q17 22 48 22h3q25 0 57 -10l17 -6l18 -12q45 -45 45 -119l2 -53 q0 -102 -39 -150q-27 -33 -59 -33l-70 -20l-80 -6l-34 -2l-41 2q-41 0 -101 26l-26 15q-18 18 -25 55zM147 35v387h86v-285l3 -37q2 -8 14 -10l16 2l17 8l36 50l56 49l94 -78l23 -35l6 -4l10 14l8 25v303l82 2v-373q-4 -20 -10 -26q-20 -27 -60 -27l-18 2l-41 14l-92 97 l-92 -103l-74 -8q-37 0 -47 10zM182 618q0 -25 29 -36q18 0 22 24l-4 31l-20 4q-25 0 -27 -23z" />
<glyph unicode="e" horiz-adv-x="370" d="M80 545l49 88q57 88 92 88l33 -10q20 -8 36.5 -13.5t61.5 -27.5l37 4q-12 -51 -30.5 -75t-41.5 -24q-10 0 -32 13l-15 12q-31 18 -51 25l-37 8l-22 -33l-15 -27l64 -18q63 -25 65 -47v-258l60 -14q35 -6 47 -68q0 -59 -22.5 -105.5t-61.5 -46.5q-31 -10 -61 -14 q-25 0 -31 4l-15 10v473q0 14 -24.5 27.5t-85.5 28.5zM274 35l21 41q20 55 20 88q-4 12 -32 12l-9 -4v-137z" />
<glyph unicode="f" horiz-adv-x="663" d="M117 535q2 8 8 26.5t15.5 37.5t24.5 43t28 40l32 18q37 18 66 19q45 0 92 -45l27 -19l41 -32l45 -17l36 -6q33 0 50 18q12 18 18 54q-31 57 -76 86l-32 14l-23 12q-18 12 -18 33q0 29 61 64q43 -20 70 -43q72 -61 82 -160q0 -84 -54 -123q-39 -29 -98 -29l-35 2l-26 7 q-49 10 -86 36l-15 13q-23 16 -49 26l-41 8l-24 -2l-15 -8l-18 -30l-6 -19l30 -22q35 -20 74 -27v-393l-2 -19q0 -47 41 -47h184q27 0 41 33l6 35v65q-63 23 -98 70l-22 45q0 33 4 45q23 104 108 117q31 0 58.5 -13.5t29.5 -41.5v-351l-22 -26q-39 -29 -94 -29h-213 q-61 0 -93 37l-16 37v413l-78 41zM506 313l8 -14q12 -27 49 -43l6 4v117l-12 2q-14 0 -20 -4q-25 -12 -31 -62z" />
<glyph unicode="g" horiz-adv-x="661" d="M94 334q0 39 23 63q33 33 92 33l47 -14q33 -14 35 -39l-2 -232q0 -55 14 -57l8 2l41 27l78 51l70 -51l16 -15l31 -14l20 2l4 14v367l-32 41q-31 -20 -80 -35l-82 -8h-35l-20 6q-74 18 -111 44t-37 65v135q0 14 -20 29l-31 14q6 23 33.5 37t62.5 18q12 -2 19 -12 q18 -25 18 -98l-2 -111q0 -12 18 -31q47 -49 138 -49q45 0 71 21l11 10l-41 33q-16 18 -21 38q0 43 28.5 77t73.5 34q49 0 80 -29q35 -25 35 -71l-12 -35q-16 -35 -57 -53l77 -47v-459l-6 -10q-18 -25 -57 -25l-41 6l-121 88l-145 -88l-47 -6q-45 0 -45 35v319l-3 13l-6 8 l-12 -10l-8 -11q0 -20 8 -30l16 -15q0 -23 -14 -28l-29 -9q-18 0 -34 17q-12 16 -17 45zM496 618q4 -34 47 -34q14 2 22 14l15 31q0 14 -13.5 27.5t-34.5 13.5q-37 0 -36 -52z" />
<glyph unicode="h" horiz-adv-x="948" d="M88 545q6 18 14.5 42.5t20.5 45.5q45 88 78 88l43 -10q18 -6 32 -11q35 -12 76 -30l37 4q-12 -53 -30.5 -74.5t-41.5 -26.5q-12 0 -34 13l-15 14q-16 14 -45 21l-43 6l-28 -56l67 -30q68 -37 70 -60v-123v-63v-207l26 -14q39 -14 74 -15l25 2h24l72 7q27 6 29 26v561 q18 29 47 41q55 20 137 21h18l97 -8q96 -14 106 -56v-651h-84v623q0 10 -22.5 16t-53.5 6h-34h-31q-45 0 -64 -8l-28 -21v-557q0 -27 -38 -44t-122 -17l-53 2l-45 -2q-92 0 -142 31q-14 10 -30 30v428q0 10 -18.5 24.5t-90.5 31.5z" />
<glyph unicode="i" d="M-569 922q0 49 45 96q53 55 155 69q82 -12 129 -30q141 -49 185 -152l-23 -37h-418q-41 0 -61 27zM-496 926h340q-39 41 -127 71l-75 19q-59 0 -105 -45z" />
<glyph unicode="j" horiz-adv-x="915" d="M143 113v495q0 18 47 66q47 43 78 47q29 0 60 -23l59 -45l16 -6q10 6 17 10q23 14 46 38t48 24q29 0 42 -6t30 -35l35 -60l38 50q51 51 105 51l27 2l30 -2l29 -12l18 -13l21 -18q20 -31 20 -64v-608h-75v574l-13 32q-18 35 -61 35l-25 -4q-25 0 -61 -45l-31 -47v-547h-86 l2 549l-10 43q-23 39 -66 39l-53 -37q-37 -25 -53 -25l-53 39q-27 20 -41 21q-10 0 -32 -22.5t-28 -45.5l2 -297l25 2q39 0 63 -16q37 -25 37 -84q-12 -66 -31 -107q-8 -25 -34 -47l-37 -12q-70 0 -92 49zM223 82q23 0 39.5 31.5t16.5 58.5q0 18 -25 25l-31 6v-121z M362 -184l9 18q16 18 57 31q84 0 127 -41l70 -74l26 -29q36 -30 79 -30h3l33 4q31 23 31 51q0 10 -33 16q-31 0 -37 33q0 80 68 80q23 0 49 -15.5t39 -62.5q0 -57 -15.5 -91t-50.5 -48l-47 -20q-12 -6 -33 -7q-37 0 -66.5 9.5t-60.5 29.5q-17 10 -37 33q-41 53 -76.5 76.5 t-60.5 23.5q-20 0 -30 -10l-9 -10z" />
<glyph unicode="k" horiz-adv-x="673" d="M133 553q0 14 9.5 33.5t19.5 36.5l69 94q47 0 97 -25q27 -12 47 -26.5t51 -42.5q12 0 61.5 43t75.5 47q25 0 51 -33q16 -20 35 -31l8 -4q20 0 31 6q0 -37 -18.5 -64.5t-48.5 -29.5q-27 6 -62 41l-31 31q-25 -4 -69 -45l-41 -41q-66 51 -125 78q-31 10 -60 14 q-37 -57 -40 -80l10 -12q31 -33 69 -45l62 14q35 6 84 6h22q59 0 92 -10q63 -18 107 -62v-446h-80v428q-29 14 -77 27.5t-79 13.5q-18 0 -37.5 -3t-52.5 -20l-34 -22v-424h-82v446l6 11q10 12 30 24q-25 4 -73 37l-23 17z" />
<glyph unicode="l" horiz-adv-x="907" d="M143 45v576q0 20 13 38q43 59 213 60q23 -2 49 -5t53 -12q104 -25 104 -71v-531l17 -18q27 -20 59 -21l45 -2q20 0 47 17l48 41v368q-4 6 -7 9q-8 12 -18 18q-35 23 -102 37q6 18 14 42.5t20 45.5q45 88 78 88l33 -10q20 -8 36.5 -13.5t61.5 -27.5l37 4 q-12 -51 -29.5 -65.5t-42.5 -14.5q-14 0 -32 12l-15 13l-41 32l-14 -16l-37 -59l68 -25q70 -35 69 -80v-397q-27 -43 -70.5 -62.5t-94.5 -19.5q-68 0 -146 27q-27 6 -65 28v551q0 25 -46.5 40t-82.5 15q-43 0 -61.5 -3t-45.5 -13l-31 -18v-312l25 -2q51 0 86 -18 q51 -29 51 -101l-2 -28q-14 -45 -82 -107l-63 -51l-29 2q-31 6 -42 13.5t-28 25.5zM227 225l2 -119q25 0 44.5 19.5t19.5 56.5v8q0 16 -19 27z" />
<glyph unicode="m" horiz-adv-x="735" d="M131 541q6 18 14.5 42.5t20.5 45.5q45 88 78 88q23 -4 30 -6t21 -11l80 -34l37 4q-12 -49 -31 -69.5t-41 -20.5q-14 0 -33 12l-14 12q-16 14 -37 21l-31 6l-30 -64l63 -30q61 -33 64 -60v-125h278v137q0 12 -31 29l-86 27q6 18 14.5 42.5t20.5 45.5q45 88 78 88l33 -10 q20 -8 36.5 -13.5t61.5 -27.5l37 4q-12 -49 -30.5 -69.5t-41.5 -20.5q-14 0 -33 12l-14 14q-16 14 -37 21l-30 6l-31 -64q18 -6 34.5 -10t32.5 -12q68 -25 68 -51v-443q-43 -33 -104 -49l-121 -10q-113 0 -172 29q-16 6 -45 30v428q0 10 -29 26.5t-80 29.5zM322 88l49 -16 q31 -8 52 -12.5t48 -4.5l23 2l32 -2l31 6l43 27v201h-278v-201z" />
<glyph unicode="n" horiz-adv-x="606" d="M143 379v203q0 55 27 84q43 47 152 47l43 -2h12h43q55 0 104 -12.5t76 -51.5v-121q0 -18 -2 -40.5t-9 -55.5t-32 -41q-35 0 -57 17l-17 16q-51 57 -51 94t45 55l47 11q0 41 -45 56t-102 15l-55 -2q-45 -6 -74 -41l-23 -32v-166q0 -18 94 -27q57 0 76 -2t37 -8l107 -25 q59 -18 59 -67l2 -84v-54v-36q-4 -20 -4 -29q0 -37 -16 -45q-2 -16 -52 -29l-45 -4q-84 47 -180 74l-82 18v-92h-74l3 160l-3 61l-2 47h76v-110h27l80 -6q18 0 36.5 -5.5t59.5 -19.5l20 -18q25 -18 45 -19q25 0 33 35v133q0 23 -57 41l-100 23q-94 0 -158 12t-64 43z" />
<glyph unicode="o" horiz-adv-x="387" d="M-117 -98h84v-142q0 -14 25.5 -26.5t70.5 -12.5l37 3l37 -5q39 0 70 12.5t31 45.5v710l-7 7q-10 10 -22 16q-35 18 -109 33l31 88q37 88 74 88l37 -12l77 -31q20 0 33 26l4 29q0 20 -11 37.5t-40 19.5l-59 -8l-23 8q-18 16 -18 43q0 20 10 37q12 33 64 33l38 -4 q43 -8 66 -45t23 -86v-23q0 -31 -5 -43q0 -18 -16 -43q-12 -51 -39 -71q-16 -12 -45 -13q-10 0 -33 13l-14 12l-39 20l-29 9l-30 -56l80 -26q80 -31 86 -58v-772q0 -39 -58 -57q-29 -8 -55.5 -12t-61.5 -4l-43 2l-57 -2q-76 0 -117 20q-45 18 -45 62z" />
<glyph unicode="p" horiz-adv-x="671" d="M111 530l14 41q18 49 63 107l35 20q37 16 68 21q37 0 92 -55l23 -11l45 -30l45 -17l36 -6q33 0 50 18q12 18 18 54q-31 57 -76 86l-32 14l-23 12q-18 12 -18 33q0 29 61 64q43 -20 70 -43q72 -61 82 -160q0 -84 -54 -119q-34 -22 -93 -22h-5h-39l-22 6q-51 12 -86 37 l-15 14q-51 35 -71 35q-12 0 -29 -11l-10 -10l-19 -30l-6 -19l23 -27q29 -27 61 -32v-371q0 -27 29 -29q14 12 20 23q18 37 29 47l18 14q20 12 47 17l29 -6q14 -4 31 -21q6 -23 14 -35q16 -31 33 -35l14 -6q27 0 29 23v72q-59 20 -96 69l-23 45q0 20 4 41t8 35q25 74 99 86 q33 0 56.5 -13.5t23.5 -41.5v-351q0 -35 -24 -48t-54 -17l-31 2q-39 18 -78 84l-14 27q-2 8 -6 13t-6 7l-11 4q-14 -6 -20 -10l-12 -12l-23 -39q-27 -41 -63 -72l-39 -4q-43 0 -62 37l-8 37v415q-25 16 -68 33zM528 322l13 -29q6 -9 43 -29l6 4v119h-12q-16 0 -35 -20 q-10 -16 -15 -45z" />
<glyph unicode="q" horiz-adv-x="690" d="M135 543q0 16 19 57q10 20 28.5 46t48.5 61q23 0 45.5 -2.5t42.5 -8.5q74 -18 140 -80q12 8 21 15.5t55 48.5q33 31 53 33q16 0 33 -13l53 -53l16 -8q23 0 31 8q0 -35 -29.5 -75t-56.5 -44q-27 6 -62 41l-30 31q-31 -4 -82 -45l-25 -20q-68 53 -131 73q-20 6 -63 10 l-19 -26q-12 -16 -14 -35l-8 6l51 -33q53 -29 86 -32v-248l51 -4q49 0 53 -25l19 -78q29 -80 80 -80q25 0 43 19q16 0 16 61l-12 43q-59 18 -96 70l-23 43q6 53 18 80q35 84 107 92q33 0 54.5 -12.5t23.5 -42.5v-350q0 -27 -21 -48q-20 -16 -63 -16l-60 -2l-34 2l-23 6 q-37 12 -54.5 57.5t-17.5 86.5q0 35 -39 34l-22 2v-149q0 -37 -51 -37l-51 6q-29 6 -62 48t-33 85q0 29 15.5 58.5t38.5 42.5l41 10q12 -4 12 -8v221l-37 29l-59 36q-8 4 -12.5 7.5t-4.5 5.5zM199 139l8 -26q12 -25 41 -27v92q-14 0 -31.5 -10t-17.5 -29zM561 309l8 -20 q13 -25 33 -27l4 19l2 20l-2 47q0 23 -6 33q-20 0 -31 -25z" />
<glyph unicode="r" horiz-adv-x="395" d="M129 553q6 18 14.5 43t20.5 45q45 88 78 88l39 -10q18 -6 32 -10q35 -12 74 -31l37 4q-12 -53 -30.5 -73.5t-41.5 -24.5q-12 0 -35 12l-18 14l-37 19q-14 6 -45 10l-29 -64l74 -18q74 -25 74 -47v-459q0 -18 -14.5 -32.5t-55.5 -14.5l-37 2q-37 0 -61.5 55.5t-24.5 108.5 q6 43 29 56.5t55 13.5h9l10 4l6 8v246q-4 6 -6 8q-8 10 -21 16q-27 14 -96 31zM205 166q0 -33 15.5 -70t31.5 -37v115l-31 4z" />
<glyph unicode="s" horiz-adv-x="892" d="M143 545q6 18 14.5 42.5t20.5 45.5q45 88 78 88l33 -10l100 -41l64 -11q-10 -43 -29 -61q-25 -29 -62 -29q-18 0 -47 27l-10 14q-20 16 -67 17l-29 -54l47 -16q37 -14 45 -41h37l102 -8q104 -18 105 -62v-356l43 -14q57 -14 90 -15q25 0 43 10.5t41 32.5v377 q0 12 -39 31.5t-90 32.5q6 18 14 42.5t21 45.5q45 88 77 88q23 -4 30 -6t22 -10l80 -35l36 4q-12 -55 -27.5 -74.5t-35.5 -19.5q-16 0 -43 16l-33 20l-10 11l-10 10l-21 -2l-6 -4l-31 -58q57 -6 80 -14q82 -25 82 -70v-403q-12 -43 -55 -63.5t-76 -20.5h-100q-86 0 -140 27 q-14 6 -34 26v373q0 18 -43 29l-86 8q-55 0 -69.5 -9.5t-18.5 -25.5v-184q35 0 68.5 -12.5t43.5 -55.5q0 -43 -37 -110q-39 -63 -73 -64h-41q-37 8 -52 33v401q0 29 16.5 45.5t80.5 26.5q0 16 -49 29zM221 51l37 33q39 45 39 82q-14 10 -25 14l-45 10l-6 -2v-137z" />
<glyph unicode="t" horiz-adv-x="665" d="M129 555q0 14 9 33.5t20 36.5l69 94q47 0 97 -25q27 -12 47 -26.5t51 -42.5q12 8 21.5 15t54.5 48q33 31 53 33q25 0 49 -33q18 -25 31 -31l22 -10q20 0 31 6q0 -33 -29.5 -65.5t-56.5 -32.5q-27 6 -61 41l-31 31q-23 -2 -66 -43l-37 -37q-68 51 -127 76l-57 14 q-18 -25 -26 -47l-7 -33l21 -22q25 -20 61 -35l62 14q35 6 84 6h22q59 0 92 -10q63 -18 107 -61v-447h-92v424q-76 41 -144 41q-53 0 -108 -25l-21 -12v-162q43 -10 62 -20q63 -35 63 -98q0 -37 -18.5 -73t-65.5 -61l-39 -10l-43 -4q-49 0 -51 27v415l15 13l36 26 q-25 4 -73 37l-23 17zM266 76q23 6 30 17t11 34q-6 23 -22 33l-19 8v-92z" />
<glyph unicode="u" d="M-242 -135q0 12 23 26l37 15q20 0 40.5 -9.5t22.5 -27.5v-207q0 -33 -10 -46t-23 -15l-38 8q-27 6 -29 14l2 6q10 8 14 37v137l2 31l-20 12q-14 6 -21 19z" />
<glyph unicode="v" horiz-adv-x="438" d="M133 547l31 88q37 88 72 88l45 -12l71 -31q20 0 33 27l4 28q0 20 -10 35.5t-41 20.5l-59 -7l-23 7q-18 18 -18 45q0 18 8 36q16 31 65 31l39 -2q41 -12 63.5 -48t22.5 -83l2 -25l-6 -45q-4 -18 -16 -38q-12 -47 -39 -72q-16 -12 -43 -12q-12 0 -35 12l-14 12 q-16 14 -37 21l-31 6l-29 -54l78 -28q80 -35 80 -55v-449q0 -18 -14.5 -31.5t-55.5 -13.5l-38 2q-37 0 -61.5 55.5t-24.5 108.5q6 43 29.5 56t56.5 13h8l20 -2l4 261q-4 6 -6 8q-8 8 -26 16zM215 160q0 -41 31 -88l14 -17v113l-29 4q-10 0 -16 -12z" />
<glyph unicode="w" d="M-569 922q0 49 45 96q53 55 155 69q35 0 66 -10q72 -14 137 -55l8 37q16 37 60 37q23 0 47 -9l28 -22q31 -31 31 -61q0 -23 -12 -45.5t-51 -53.5l-41 -31l-15 -6h-385q-41 0 -61 27zM-489 934h337q-37 41 -124 72l-76 18q-59 0 -105 -45zM-119 1016q0 -12 23 -35 q37 0 39 20l-4 17l-9 14q-49 0 -49 -16z" />
<glyph unicode="x" horiz-adv-x="622" d="M141 506v86l15 39q49 90 188 90h35l51 -4q41 0 87 -16.5t75 -55.5l12 -31q12 -35 12 -57q0 -27 -12 -74l-12 -41q-25 -59 -119 -104l-88 -33l-41 -14l-41 -4q-37 0 -58.5 -16.5t-25.5 -39.5v-88l31 -43q47 -43 127 -43l78 19q78 31 77 84v129h84v-139q-6 -68 -84 -115 l-77 -33h-93q-131 0 -188 66q-18 18 -31 67v119q0 25 19 49q27 33 86 45q55 0 104 19q92 12 140 53q31 25 36 47l11 35l4 28q0 23 -4 33q0 12 -9 23q-25 53 -88 71l-90 9q-61 -6 -102 -41l-27 -33l29 4l24 2q25 0 40.5 -7t17.5 -28q0 -23 -26.5 -65.5t-84.5 -81.5 q-37 0 -59.5 22.5t-22.5 67.5zM195 526q2 -4 7 -10t11 -10l18 -8l19 14q18 16 18 27l-8 6h-29q-37 -6 -36 -19z" />
<glyph unicode="y" horiz-adv-x="978" d="M139 598q0 49 13.5 89t56.5 40l33 -6l57 -37q59 -49 59 -98q0 -35 -30.5 -72t-100.5 -78v-336l29 -22q41 -25 82 -25l49 6q45 0 70 7q43 12 63 47v368q0 12 -20 27q-31 23 -99 37q6 18 14.5 42.5t20.5 45.5q45 88 78 88q23 -4 30 -6t21 -10l80 -35l37 4 q-12 -49 -30.5 -69.5t-41.5 -20.5q-14 0 -32 12l-15 14l-39 19l-28 8l-31 -64l67 -30q66 -37 70 -62v-123v-63v-189l29 -22q37 -25 80 -25q55 0 92 18.5t37 43.5v174v63v138q-8 10 -13 14q-25 14 -110 41q6 18 14 42.5t21 45.5q45 88 77 88l50 -18q18 -6 30.5 -10.5 t51.5 -24.5l36 6q-12 -49 -30.5 -69.5t-40.5 -20.5q-14 0 -33 12l-14 12q-16 14 -37 21l-31 6l-31 -63l74 -19q74 -23 74 -45v-453q-18 -29 -49 -41q-55 -20 -123 -20l-47 2q-57 0 -85 14.5t-30 40.5q-39 -33 -105 -49l-118 -10l-45 -2q-111 0 -160 49q-12 16 -25 49v461z M227 504l43 69l4 17q0 20 -30 37l-17 6v-129z" />
<glyph unicode="z" horiz-adv-x="708" d="M123 428q0 35 28.5 63.5t73.5 28.5l27 -4q43 -6 43 -55v-377l8 -10q29 -25 94 -25l58 4l71 8q43 10 43 39v367q-4 6 -10 13t-29 22q-47 31 -114 45l30 88q37 88 72 88l29 -10q20 -8 35.5 -13.5t50.5 -21.5q20 0 33 29l4 28q0 18 -11.5 35.5t-40.5 20.5l-59 -7 q-14 0 -20 7q-18 16 -19 45q0 20 8 36q16 31 66 31l39 -4q41 -10 63.5 -48t22.5 -83l2 -23q0 -25 -3.5 -39.5t-19.5 -43.5q-18 -43 -45 -64q-18 -12 -39 -12q-10 0 -32 12l-15 12q-16 14 -37 21l-30 6l-29 -64l88 -34q84 -37 88 -62v-397q0 -49 -47 -68q-27 -8 -58.5 -9 t-49.5 -1h-46h-18l-82 -2h-22q-47 0 -69 9t-46 50v373l-6 14l-13 13l-6 -6l-12 -17q0 -25 8 -33l15 -10q0 -20 -11 -28l-16 -5q-16 0 -33 19q-12 18 -12 49z" />
<glyph unicode="{" horiz-adv-x="413" d="M92 897q0 37 27 57q23 12 47 13q29 0 51 -19q12 -12 12 -30q0 -39 -26 -58q-23 -12 -29 -22l-6 -29l16 -41q-55 13 -82 72zM240 901q0 41 28 57l21 9l26 2q25 0 43.5 -11.5t18.5 -33.5q0 -39 -27 -60q-20 -12 -28 -24l-7 -25q8 -29 17 -43q-60 17 -80 72q-12 37 -12 57z " />
<glyph unicode="|" horiz-adv-x="987" d="M143 27v608l15 12l32 27l17 10l22 8l70 13l80 6l22 2q59 0 93 -11q63 -18 106 -61v-641h-92v616q-76 41 -143 41q-57 0 -109 -22l-20 -12v-383q31 -10 47 -23q49 -37 49 -102q0 -35 -21.5 -61.5t-60.5 -45.5l-29 -6l-26 -2q-49 0 -52 27zM231 74q23 6 30 17t11 34 q-6 23 -22 33l-19 8v-92zM246 -174q0 51 24 76q27 20 80 20l176 2q16 0 29.5 -2t43.5 -15t30 -46l-2 -21v-96l8 -18q20 -20 59 -21l21 2h51q45 0 61 17l11 18v745l-7 7q-10 10 -22 16q-35 18 -109 33l31 88q37 88 74 88l37 -12l78 -31q20 0 32 26l4 29q0 20 -11 37.5 t-40 19.5l-59 -8l-23 8q-18 16 -18 43q0 20 10 37q12 33 64 33l39 -4q43 -8 65.5 -45t22.5 -86v-23q0 -31 -5 -43q0 -18 -16 -43q-12 -51 -39 -71q-16 -12 -45 -13q-10 0 -33 13l-14 12l-39 20l-29 9l-30 -56l80 -26q80 -31 86 -58v-792l-4 -17q-20 -39 -93 -38l-196 2 q-53 0 -68.5 13t-19.5 42v143q0 16 -31 27l-43 4h-25h-43q-31 0 -47 -6t-18 -27v-51l51 -4q53 0 53 -70q-6 -35 -36.5 -48t-67.5 -17q-49 0 -66.5 15t-21.5 42v121zM334 -254v-49q37 0 41 31l-27 16z" />
<glyph unicode="}" horiz-adv-x="413" d="M98 924q0 23 17.5 34t44.5 11q29 0 52.5 -13.5t23.5 -54.5q0 -16 -13 -57q-19 -54 -80 -72l17 43l-6 25q-2 8 -29 25.5t-27 58.5zM248 918q0 49 61 49q27 0 50.5 -13.5t23.5 -56.5q0 -29 -10 -57q-19 -54 -82 -72l16 41l-6 29l-29 22q-25 16 -24 58z" />
<glyph unicode="~" horiz-adv-x="1581" d="M90 287q0 231 234 360q201 111 483 111q279 0 475 -123q225 -141 225 -377q0 -217 -227 -330q-186 -92 -465 -92q-289 0 -487 101q-238 121 -238 350zM135 283q0 -197 234 -273q160 -51 458 -51q350 0 494 82q129 74 145 217q2 14 2 39q0 180 -221 276q-180 78 -436 78 q-276 0 -449 -71q-227 -94 -227 -297zM236 248v10v10v13l30 32q0 55 17 97q10 29 22 55.5t27 52.5q2 10 7 15.5t7 7.5q16 29 35 28q18 0 18 -28q0 -37 -8 -58l-18 -51l-27 -49l-35 -59l-4 -7l-6 -6q6 -49 43 -55q4 0 33 16q14 8 51 41q6 6 21 19l12 12q16 2 31 -14l2 -23 l6 -33q2 -8 14 -12l8 2l13 6l47 41l16 17l25 26q14 10 24 11q14 0 15 -13l-3 -16l-4 -17l-2 -18l11 2l18 19l29 26l24 23q4 4 17 4l8 -6l4 -15l-6 -37l-4 -36l6 8l6 6q31 31 57 31l11 -9l10 -18q6 -14 9 -19.5t15 -9.5l93 62l12 16l16 12l19 17l8 2q6 0 9 -3l5 -5l-4 -6 l-2 -7l16 4l15 3q20 0 28 -15l4 -6l3 -16l-7 -37l-10 -17l-8 -14l-4 -4l-6 -6l-6 -8l-37 -31q-14 -10 -33 -10q-23 0 -27 10q-12 2 -18 20l2 25q2 14 4 18q-6 -2 -45 -24q-12 -6 -39 -23l-20 9l-17 16l-16 18q-2 2 -15 4q-8 -2 -12 -6l-14 -12q-29 -37 -47 -51l-15 -6 q-10 4 -10 8q0 18 10.5 50t10.5 44l-4 2q-12 -6 -17 -10l-16 -10l-23 -27l-26 -29l-21 -20l-8 -2l-10 8l10 37l8 39q-6 -2 -13 -4t-20 -9q-25 -16 -47 -30q-10 -8 -32 -25l-21 12l-8 13l-4 12l-8 12q0 4 -11 11l-14 -9l2 2l-90 -53q-18 0 -32.5 3t-20.5 12q-14 16 -17 38 q-4 -2 -9 -4t-11 -8zM307 360l4 21l6 22q8 10 12.5 33t32.5 51v-8l-4 -14l-6 -25l-8 -18l-8 -16l-8 -15zM459 438q4 18 8 23l18 14q6 8 11 10l18 4l8 -6q-2 -27 -8 -32q0 -12 -12 -23l-17 -10l-10 -2q-4 0 -7 2t-5 4zM979 256q8 29 16 37l17 14l12 10l12 5q17 -1 17 -21 l-2 -12l-7 -19q-25 -25 -53 -34q-12 0 -12 20zM1059 221l20 25l19 24l61 60l12 12l23 23l20 6q16 0 19 -25l-4 -24l-4 -13l-8 -24l-7 -19l4 -6l7 8l6 8l22 23q29 31 45 31l17 -4l6 -13l8 -10l6 -14l10 -19l7 -2l12 11l10 6l2 -29q-25 -31 -45 -33l-14 6l-15 19l-14 20 q-2 4 -5 6t-5 5l-6 -5l-11 -6l-12 -10l-14 -12l-19 -25l-24 -26q-2 -8 -21 -9l-12 2v13l2 20l4 17l8 22v10l2 9l5 12l-5 4l-12 -6l-12 -17l-53 -36l-17 -11l-12 -8z" />
<glyph unicode="&#xa1;" horiz-adv-x="413" d="M211 631q12 61 80 61q66 0 84 -61l-53 -420h-58zM219 78q0 31 21.5 54.5t52.5 23.5t56.5 -19.5t25.5 -54.5q0 -33 -19.5 -53.5t-54.5 -24.5q-31 0 -59 19q-23 18 -23 55z" />
<glyph unicode="&#xa2;" d="M-469 -229l2 39l6 24q12 72 90 72l13 -49l-15 -7q-33 -27 -33 -73l5 -27q0 -47 26 -47q18 0 45 21l13 12l8 6l28 51l7 -12q14 -29 30 -39l13 -21q14 -16 30 -20q14 0 27 27l18 34l-22 13q-23 6 -37 30l-2 19q0 14 -4 22q0 66 69 66q25 -6 43 -18q10 -12 15 -39l-2 -66 l26 8q27 12 41 47l23 -39q-16 -31 -53 -51l-35 -12q-23 -55 -48.5 -82t-50.5 -27q-18 0 -40 17l-17 16q-31 23 -37 41l-32 -41q-18 -31 -62 -31q-43 0 -70 39q-18 53 -18 97zM-176 -160q6 -10 10 -14l14 -8v43q-22 -1 -24 -21z" />
<glyph unicode="&#xa3;" d="M-600 -162l4 8q14 25 64 39q84 0 126 -41l70 -73l27 -29q39 -29 82 -29l30 2q33 27 33 54q0 10 -31 14q-31 0 -38 33q0 82 65 82q35 0 56.5 -20.5t33.5 -59.5q0 -37 -2 -52.5t-14 -35.5q-14 -33 -45 -52l-43 -16l-41 -8q-82 0 -146 49l-20 21q-41 51 -78 77 q-31 18 -57 23q-20 0 -31 -8l-10 -11z" />
<glyph unicode="&#xa4;" d="M-600 -162l4 8q14 25 64 39q84 0 126 -41l70 -73l27 -29q39 -29 82 -29l30 2q33 27 33 54q0 10 -31 14q-31 0 -38 33q0 82 65 82q35 0 56.5 -20.5t33.5 -59.5l4 -13v-16q0 -27 -10 -47l-12 -18l69 -41l-24 -56l-88 51l-43 -16l-41 -8q-82 0 -146 49l-20 21q-41 51 -78 77 q-31 18 -57 23q-20 0 -31 -8l-10 -11z" />
<glyph unicode="&#xa5;" d="M-432 -299q0 14 31 25l16 4v69l2 72h80l2 -70h158v70h84v-203l-2 -10q-8 -25 -35 -27l-15 4q-29 6 -45 19q-33 27 -32 43q0 12 10 18l35 9v34h-158v-86l-2 -10q-8 -25 -35 -27l-16 5q-31 0 -43 18q-31 23 -35 43z" />
<glyph unicode="&#xa6;" horiz-adv-x="552" d="M164 2l8 10l41 27l33 27q96 92 96 262q0 106 -43 189t-127 128l-8 12l6 7l23 -7l38 -20q76 -45 134 -129q51 -84 51 -180q0 -160 -127 -267l-64 -45q-35 -18 -55 -22z" />
<glyph unicode="&#xa7;" d="M-473 -256q0 53 26.5 72.5t94.5 19.5q61 0 149 25.5t154 56.5q0 -102 -24.5 -162.5t-73.5 -83.5l-13 -2q-23 0 -63 25l-15 12q-12 -49 -41.5 -67.5t-58.5 -18.5l-27 2q-66 12 -94 68zM-401 -264q0 -20 4 -27q12 -31 69 -37q2 0 4 2q12 12 27 33l31 49l33 -8l59 -20 q16 6 33 36l32 89l-79 -46q-96 -45 -164 -45q-49 0 -49 -26z" />
<glyph unicode="&#xa9;" horiz-adv-x="8" d="M-463 -152q0 20 22.5 36t53.5 20q33 0 51.5 -16.5t18.5 -55.5l-11 -51l-20 -49l-2 -19q0 -35 45 -35l31 5q23 0 53 36l-29 19q-16 8 -29 31l-6 12q0 20 11 47l6 12q18 23 43 41q20 10 53 10t48 -7t18 -36l-33 -90l18 -14q12 -6 33 -6q29 12 35 31l24 -27q0 -37 -39 -61 l-24 -7q-14 0 -41 11l-35 10q-31 -47 -68 -64q-37 -12 -116 -12q-45 8 -64.5 25.5t-19.5 38.5q0 16 4 24l10 17q18 12 25 26l6 27q0 25 -47 45q-25 10 -25 26zM-211 -201l21 -20l18 45l-6 10l-6 2q-12 -6 -17 -10l-2 -6z" />
<glyph unicode="&#xab;" horiz-adv-x="614" d="M143 86v246l45 20q62 23 148 31l104 29q68 18 72 37v133q0 43 -43 61l-90 21q-55 0 -104.5 -16.5t-51.5 -41.5v-24q0 -14 5 -20.5t57 -18.5q49 -8 51 -41q0 -29 -35 -49.5t-76 -20.5q-39 6 -56 31.5t-17 60.5v125q4 14 10 21q43 49 196 49l33 2q55 0 117.5 -12.5 t93.5 -44.5v-226q0 -37 -86 -78q-12 -6 -59 -20q-25 -8 -47 -14l-107 -27q-37 -6 -63 -14q-4 0 -13 -4v-142q0 -39 32 -56t99 -17q57 0 109.5 29.5t54.5 47.5v183l82 41v-400q6 -27 27 -35q10 -2 20 -6q0 -2 2 -4q-10 -23 -39 -41q-20 -12 -55 -16l-20 2q-18 6 -19 27l6 51 v108q-14 -16 -77 -35l-95 -14q-98 0 -153 25q-33 12 -58 57zM150 705l30 112q31 90 99 98q37 0 76.5 -10t78.5 -45q14 -12 35 -16h27l22 6q14 6 17 22q0 18 -25 50t-57 49q-6 6 -11 24q0 20 21 49l12 15l10 -8l21 -2l47 -37q49 -50 49 -105l-20 -69q-14 -31 -64 -52l-33 -14 l-36 -4q-23 6 -31 10l-37 19l-53 18q-35 12 -60 12l-28 -4q-12 -6 -21 -16l-33 -47l35 8q20 0 31.5 -7t13.5 -16l-6 -12l-8 -4l-8 -8q-16 -14 -25 -27q-18 18 -37 23z" />
<glyph unicode="&#xac;" horiz-adv-x="552" d="M123 328q0 156 129 270l67 45q35 18 54 21l8 -7l-8 -12q-88 -43 -129 -127q-43 -79 -43 -190q0 -104 43 -191q43 -78 129 -125l8 -10l-8 -8q-16 0 -62 26q-82 47 -135 128t-53 180z" />
<glyph unicode="&#xad;" horiz-adv-x="552" d="M182 260v80h363v-80h-363z" />
<glyph unicode="&#xae;" horiz-adv-x="358" d="M137 543l49 88q57 88 93 88l32 -10q20 -8 37 -13.5t62 -27.5l36 4q-12 -51 -30.5 -75t-40.5 -24q-10 0 -33 13l-14 12q-31 18 -52 25l-36 8l-23 -33l-14 -27l63 -18q63 -25 66 -47v-985q4 -14 8 -19q27 -27 121 -26l24 -2q47 0 79 9t34 42v80h74v-103l2 -18 q0 -43 -58 -64q-47 -14 -102 -14l-45 2h-49q-109 0 -150 41q-18 18 -22 53v985q0 14 -24.5 27.5t-86.5 28.5z" />
<glyph unicode="&#xb0;" horiz-adv-x="829" d="M125 449q0 74 61.5 147.5t139.5 73.5q45 0 73 -29l33 -18l43 -5q88 0 139 64h72l-358 -643h-74l326 582l-62 -19l-53 -4q-29 0 -45 8l6 -51q0 -88 -61.5 -160.5t-128.5 -72.5q-111 0 -111 127zM195 422q0 -68 59 -68q61 6 104 73.5t43 141.5l-6 43q-20 4 -39 17l-26 14 q-33 0 -80 -61q-55 -74 -55 -160zM485 166q0 76 61.5 147.5t141.5 71.5q41 0 70.5 -33t29.5 -69q0 -102 -59 -173t-125 -71t-92.5 35t-26.5 92zM557 131q0 -63 57 -63q59 0 109 75q41 66 41 133q0 31 -17.5 55.5t-48.5 24.5q-33 0 -63 -30q-14 -17 -41 -64q-37 -84 -37 -131 z" />
<glyph unicode="&#xb2;" horiz-adv-x="645" d="M199 412v200q0 18 45 60.5t73 46.5q25 0 50 -27l45 -49l14 -6q12 0 47 41q31 41 57 41q16 0 29.5 -7t40.5 -61l33 -80v-335l-21 -48q-68 -113 -250 -192l-30 -4h-23q-35 0 -45 4l-20 8q104 43 192 113q125 100 125 135v299q-10 18 -30.5 38.5t-51.5 33.5 q-12 -6 -37.5 -39t-42.5 -35l-30 31q-31 31 -52 34q-12 -2 -14 -4q-35 -18 -35 -67q49 0 76 -15q47 -25 47 -94q-8 -61 -31 -92q-18 -31 -51 -31l-30 -4q-59 0 -74 47zM270 381q31 0 45.5 12.5t16.5 34.5q-2 25 -27 33l-35 8v-88z" />
<glyph unicode="&#xb3;" horiz-adv-x="413" d="M156 115q0 41 23.5 56t51.5 15q29 0 52.5 -13t23.5 -36q0 -35 -4 -45l-10 -16l16 -13l23 -8l18 8l25 19q-23 -70 -105 -70q-53 0 -92 41q-23 23 -22 62zM160 586q0 39 30 63q12 6 46 10q27 0 50 -13t23 -38q0 -31 -4 -39l-8 -18l18 -19l13 -6q20 6 24 11l25 16 q-18 -68 -105 -68q-53 0 -92 41q-20 27 -20 60z" />
<glyph unicode="&#xb4;" horiz-adv-x="632" d="M100 -135l4 8q14 25 64 39q84 0 127 -41l70 -74l26 -28q39 -29 82 -29l31 2q33 27 33 53q0 12 -33 15q-31 0 -37 32q0 82 65 82q35 0 56.5 -20.5t34.5 -59.5q0 -37 -2.5 -52t-14.5 -36q-14 -33 -45 -51l-43 -16l-41 -8q-82 0 -145 49l-21 20q-41 53 -76.5 76.5 t-60.5 23.5q-14 0 -29 -8l-10 -10zM147 506v86l15 39q49 90 188 90h35l51 -4q41 0 87 -16.5t75 -55.5l12 -31q12 -35 13 -57q0 -27 -13 -74l-12 -41q-25 -59 -119 -104l-88 -33l-41 -14l-41 -4q-37 0 -58.5 -16.5t-25.5 -39.5v-88l31 -43q47 -43 127 -43l78 19q78 31 78 84 v129h84v-139q-6 -68 -84 -115l-78 -33h-92q-131 0 -189 66q-18 18 -30 67v119q0 25 18 49q27 33 86 45q55 0 104 19q92 12 140 53q31 25 37 47l10 35l4 28q0 23 -4 33q0 12 -8 23q-25 53 -88 71l-91 9q-61 -6 -102 -41l-27 -33l29 4l25 2q25 0 40 -7t17 -28 q0 -23 -26.5 -65.5t-84.5 -81.5q-37 0 -59.5 22.5t-22.5 67.5zM195 530q2 -4 7 -10t11 -10l18 -8l19 14q18 16 18 27l-8 6h-29q-37 -6 -36 -19zM301 942q0 49 36 82t83 33q49 0 84 -32t35 -83q0 -45 -34 -75.5t-85 -30.5t-86 28q-33 33 -33 78zM377 940q0 -43 49 -43 q41 0 41 49q0 25 -16 33l-33 8q-18 0 -27.5 -11t-13.5 -36zM416 -428q0 12 22 27l37 14q20 0 41 -9.5t23 -27.5v-194q0 -29 -10.5 -43.5t-22.5 -18.5l-41 8q-25 6 -27 15l2 6q25 16 25 37v120l-2 21l-6 14l-11 4l-10 9q-14 6 -20 18z" />
<glyph unicode="&#xb5;" d="M-492 -168l35 18q4 -16 37 -46.5t62 -36.5q25 0 47 24.5t35 56.5h75v62h62v-60h35q23 0 47 -18q20 -20 20 -45q0 -16 -18.5 -38.5t-44 -35t-52.5 -12.5t-35 9t-12 36v57h-55q-12 -35 -35.5 -58.5t-62.5 -29.5q-45 0 -80 33q-35 29 -60 84zM-139 -186v-72l33 14 q16 10 22 27q0 31 -55 31z" />
<glyph unicode="&#xb6;" d="M-496 -193q4 37 20.5 63t51.5 30l27 4q29 0 47 -10.5t18 -40.5l-2 -23q-4 -16 -14 -31l-6 -10l-19 -12l-18 6l-15 10l9 31q-12 0 -29 -12l2 -7q6 -35 49 -59q25 -12 56 -16l6 2l10 -2q31 0 75 35.5t93 103.5l16 8l33 10q20 0 39.5 -7t19.5 -27l-28 -37l-23 4 q-14 -6 -18 -10q-47 -68 -117 -109l-57 -23l-43 -6q-41 0 -82 13l-17 8q-33 16 -58.5 48t-25.5 66z" />
<glyph unicode="&#xb9;" horiz-adv-x="460" d="M178 549q6 18 14.5 42.5t20.5 45.5q45 88 78 88l39 -10q18 -6 32 -10q35 -12 74 -31l37 4q-12 -53 -30.5 -73.5t-41.5 -24.5q-12 0 -34 12l-19 14l-37 19q-14 6 -45 10l-28 -64l73 -18q74 -25 74 -47l2 -103h72v-98h-72v-260q0 -23 -17.5 -32t-54.5 -13l-36 2 q-37 0 -61.5 55.5t-24.5 108.5q6 43 28.5 56.5t54.5 13.5h9l8 2l6 6v61h-76v98h76l2 91q-4 6 -6 8q-8 10 -21 16q-27 14 -96 31zM254 162q0 -39 18.5 -84t28.5 -45v137l-31 4z" />
<glyph unicode="&#xbb;" horiz-adv-x="643" d="M135 791q0 47 64 98q76 59 163 59l52 -6q84 -16 137 -63q53 -43 53 -125q0 -12 -18.5 -33t-30.5 -21l-4 11l-10 51q0 37 -41 54.5t-107 27.5q-78 0 -143 -33l-27 -18q45 -1 45 -52q0 -10 -16 -23t-33 -18q-12 0 -16 22.5t-10.5 28t-32 11.5t-25.5 29zM164 82v246l45 20 q61 23 147 31l105 29q68 18 71 36v134q0 43 -43 61l-90 20q-55 0 -104 -16t-51 -41v-29q0 -14 4 -19t57 -17q49 -6 51 -39q0 -29 -34.5 -49.5t-75.5 -20.5q-39 6 -56.5 31.5t-17.5 58.5v127q4 14 10 21q43 49 197 49l33 2q31 0 61.5 -2t72.5 -9.5t75 -43.5v-232 q0 -35 -86 -76l-105 -32l-106 -27q-37 -6 -64 -14q-4 0 -12 -5v-141q0 -39 31.5 -56.5t99.5 -17.5q59 0 110.5 30t55.5 46v180l80 45v-399q6 -27 26 -35q10 -2 21 -6q0 -2 2 -4q-10 -23 -39 -41q-20 -12 -55 -16l-21 2q-18 6 -18 26l6 52v108q-14 -16 -78 -35l-94 -14 q-98 0 -154 25q-33 12 -57 57z" />
<glyph unicode="&#xbc;" horiz-adv-x="552" d="M125 14l8 15l350 645q12 18 29 18l23 -6l18 -24l-352 -648q-4 -6 -21 -10l-30 4l-21 2z" />
<glyph unicode="&#xbd;" d="M-494 975q0 33 33 59q25 25 68 25q76 -10 76 -88l-19 -19q-27 -20 -47 -20q-16 0 -27 8l7 -12q16 -29 75 -41q68 0 109 26q68 43 67 156l-2 35q0 29 70 29l4 -72q0 -141 -106 -203q-33 -18 -109 -33q-88 0 -143.5 40t-55.5 110z" />
<glyph unicode="&#xbe;" d="M-403 1014q0 137 110 137q47 0 82 -16q14 -4 27 -17v107q0 18 16 28q12 12 37 13q18 0 32.5 -8.5t16.5 -22.5q-12 -8 -16 -18l-6 -39l-9 -31q0 -41 -6 -55.5t-37 -26.5l-32 -6q-12 0 -27 8l-53 33q-29 0 -57.5 -30t-28.5 -56q0 -16 18 -35q16 -12 35 -12q20 0 29.5 21.5 t27.5 21.5q14 -14 23 -25l16 -27q10 8 12 17l13 31q2 14 26 16q23 0 30 -8t7 -47q0 -37 -22 -70q-8 -10 -23.5 -18.5t-34.5 -8.5q-10 6 -16 13q-16 16 -25 24q-16 18 -28 19q-12 -14 -17.5 -30.5t-15.5 -18.5q-23 0 -49.5 12t-34.5 33l-14 41z" />
<glyph unicode="&#xbf;" d="M-322 1163q0 47 36 80t83 33q49 0 84 -32t35 -81q0 -45 -35 -76.5t-84 -31.5t-84 29.5t-35 78.5zM-248 1159q0 -43 51 -43q41 0 41 49q0 43 -49 43q-43 0 -43 -49z" />
<glyph unicode="&#xc1;" d="M-479 -203q0 53 65.5 80t143.5 27q88 0 153.5 -24.5t65.5 -82.5v-166h-72v166q0 23 -52 36t-95 13q-41 0 -86 -12t-50 -37v-84q43 53 97 54q23 0 37 -15.5t14 -48.5q0 -14 -10 -25l-21 -10l-22 10q-10 6 -31 11q-29 -6 -47.5 -18.5t-18.5 -39.5h-71v166z" />
<glyph unicode="&#xc4;" horiz-adv-x="368" d="M-444 -160q0 31 18 54q29 29 102 28l33 -2h23q35 0 63.5 -15.5t28.5 -68.5v-123l24 -14q37 -14 58 -14q20 0 34.5 7t26.5 27v185h74v-185l33 -18q37 -18 65 -18q20 0 38 9t22 32l2 770l-6 14q-18 16 -103 41l35 88q41 88 76 88l39 -14l94 -39l37 6q-12 -53 -30.5 -74.5 t-41.5 -25.5q-12 0 -35 12l-14 14l-39 21l-29 6l-28 -56l63 -18q63 -25 66 -45v-819l-27 -31q-37 -31 -96 -31h-19q-49 0 -102 27l-23 14q-16 -16 -47 -28l-51 -11l-39 -2q-68 0 -106 33q-12 10 -25 33v151q-31 25 -61 25q-25 0 -41 -14l-13 -17v-59l39 -12q39 -20 39 -47 q0 -18 -19.5 -42t-66.5 -51q-35 0 -53 11.5t-18 33.5v164zM-369 -266v-33q27 0 33 14q0 18 -33 19z" />
<glyph unicode="&#xc5;" d="M-588 1087q0 49 45 97q53 55 156 69q49 0 74 -8q80 -18 143 -69l8 18q0 14 -16 25l-25 16q-27 20 -33 39l4.5 9t13.5 13.5t28 8.5q12 0 24 -13l21 -18q18 -20 20 -41l2 -33q0 -33 -10 -49l31 -31l14 -24q16 27 20 55l-2 25l-8 14l-16 18q-16 18 -23 39q0 10 13 21l30 8 q12 0 25 -12l16 -25q6 -12 6 -33q0 -53 -12 -94q-18 -53 -57 -78h-418q-41 0 -61 27zM-514 1092h340q-39 41 -127 71l-76 19q-59 0 -104 -45z" />
<glyph unicode="&#xc6;" horiz-adv-x="368" d="M-315 -193q0 29 18 55.5t43 33.5l12 2q39 0 74 -27l31 -25q6 4 10 7q12 8 27 20q29 25 63 25l27 -4q45 -12 45 -82l2 -41l55 -7l33 -34q35 -31 55 -35q17 0 19 29l2 770l-6 14q-18 16 -103 41l35 88q41 88 76 88l39 -14l94 -39l37 6q-12 -53 -30.5 -74.5t-41.5 -25.5 q-12 0 -35 12l-14 14l-39 21l-29 6l-28 -56l63 -18q63 -25 66 -45v-819q0 -35 -19.5 -50.5t-52.5 -19.5q-25 0 -61 12l-29 13q-27 23 -53 57l-11 19h-22v-46q-6 -25 -24.5 -36t-41.5 -15l-32 4q-23 6 -36.5 24.5t-15.5 49.5q0 31 25 43t51 16v25q0 41 -18 45l-15 2l-26 -6 l-47 -37q-12 18 -29 27l-27 6h-12l-14 -6q-12 -10 -17 -45l33 -17q33 -23 33 -47q0 -20 -21.5 -36.5t-74.5 -39.5q-25 0 -32 13.5t-11 38.5v120zM-254 -266v-39q27 0 29 14q0 25 -29 25zM-70 -299q0 -20 33 -23v46l-12 2q-16 0 -21 -25z" />
<glyph unicode="&#xc7;" horiz-adv-x="368" d="M-309 -199q0 33 20 74l8 14l15 5l37 6q23 0 40 -12.5t17 -51.5l-2 -127l22 -14q25 -12 52 -17q18 0 33.5 7.5t33.5 33.5v166h74v-166l33 -18q37 -18 65 -18q20 0 38 9t22 32l2 770l-6 14q-18 16 -103 41l35 88q41 88 76 88l39 -14l94 -39l37 6q-12 -53 -30.5 -74.5 t-41.5 -25.5q-12 0 -35 12l-14 14l-39 21l-29 6l-28 -56l63 -18q63 -25 66 -45v-819l-27 -31q-37 -31 -96 -31h-19q-49 0 -102 27l-23 14q-16 -16 -47 -28l-51 -11l-16 2q-74 0 -113 21q-25 12 -39 45l-2 115l-6 18l-10 -18q0 -23 -19 -27q-10 2 -12 4z" />
<glyph unicode="&#xc9;" horiz-adv-x="659" d="M133 387q0 35 27.5 64.5t75.5 29.5l26 -4q31 -6 31 -57v-281l4 -35q0 -14 14 -16l13.5 9t19.5 20l82 61l98 -67q10 -12 21 -17q16 0 16 51v426q0 35 -21.5 48.5t-54.5 15.5l-45 -4l-22 -6l-31 -17l-53 -28l-33 -21q-16 -12 -47 -12q-25 0 -40 10t-17 41v107 q0 12 -18.5 31.5t-35.5 23.5q16 49 84 49q29 0 47 -41l9 -35l-11 -110q23 25 88 53q14 6 49 16t66 10q82 0 121 -20q51 -29 51 -109v-518q0 -18 -15.5 -35.5t-43.5 -21.5l-39 8l-121 86l-133 -86l-31 -4q-39 0 -51 31l-2 14v350l-6 21l-12 -6l-13 -15q0 -18 8 -28l17 -15 q0 -23 -12 -28l-17 -4q-43 0 -43 65z" />
<glyph unicode="&#xcd;" d="M-569 1087q0 49 45 97q53 55 155 69q78 -12 119 -26q129 -43 180 -131q6 10 7 30l-5 35q0 12 -10 29l-16 18q-16 18 -23 39q0 10 13 21l30 8q12 0 25 -12l16 -25q6 -12 6 -33l4 -45q0 -57 -13 -84.5t-42 -42.5h-418q-41 0 -61 27zM-496 1092h340q-39 41 -127 71l-75 19 q-59 0 -105 -45z" />
<glyph unicode="&#xd0;" d="M-432 -184q0 27 22 57q16 23 56 23q20 0 32.5 -2.5t40.5 -14.5l60 -16l49 26q16 6 47 11l25 -4l34 -25q18 -14 21 -27q0 -55 -66 -90q-55 -29 -129 -37l-47 -8q-49 -12 -49 -26l4 -7q0 -2 2 -2q14 -10 33 -14l59 -8l56 18q55 25 57 54l68 18v-133h-74v41q-16 -16 -55 -27 l-68 -10l-43 2h-22q-45 0 -62.5 13.5t-32.5 39.5l-4 23q0 31 39 43q27 0 43 8l33 10q35 8 65.5 16.5t38.5 12.5q68 25 70 53l-27 -8q-49 -18 -63 -19l-64 27l-59 23l-14 -11q-14 -10 -17 -22l27 -8l33 4l6 -4l4 -27l-2 -8q-12 -25 -55 -25q-14 0 -32 9.5t-28 23.5 q-12 10 -12 27z" />
<glyph unicode="&#xd1;" d="M-862 -162q6 25 18 37q37 37 125 37h21h20q57 0 102.5 -12.5t45.5 -61.5l2 -127l69 86l70 -88l-2 125q4 16 10 25q31 55 150 55l22 2q49 0 95 -15.5t59 -64.5v-198h-72v172q0 25 -35 47q-37 18 -65 18q-33 0 -57.5 -15.5t-28.5 -45.5v-146q0 -18 -11 -28l-28 -9l-19 2 l-18 7l-72 84l-55 -70l-55 -14q-18 0 -27 10l-14 28v152q-6 8 -37 23l-51 6q-39 0 -64 -17l-18 -16l2 -27l45 -41q20 -20 20 -41q0 -14 -14 -32.5t-53 -42.5h-19q-31 0 -45 14q-14 10 -16 35v147zM-784 -258v-41l20 2q12 0 12 16q0 25 -18 29z" />
<glyph unicode="&#xd3;" horiz-adv-x="387" d="M-274 922q0 49 45 96q53 55 155 69q49 0 74 -8q80 -18 143 -69l9 18q0 14 -17 25l-24 16q-27 20 -33 39q2 4 4 9t13 13.5t28 8.5q12 0 24 -13l21 -18q18 -20 20 -41l5 -33q0 -31 -13 -49l31 -31l14 -24q16 27 21 55l-2 25l-8 14l-17 18q-16 18 -22 39q0 10 12 21l31 8 q14 0 24 -10l12 -27l9 -33q0 -51 -13.5 -101t-54.5 -71h-418q-41 0 -61 27zM-201 926h340q-39 41 -127 71l-75 19q-59 0 -105 -45zM-117 -420h84v-141l21 -21q31 -20 73 -20q29 0 39 4q59 0 96.5 9t41.5 44v1032l-7 7q-10 10 -22 16q-35 18 -109 33l31 88q37 88 74 88 l37 -12l77 -31q20 0 33 26l4 29q0 20 -11 37.5t-40 19.5l-59 -8l-23 8q-18 16 -18 43q0 20 10 37q12 33 64 33l38 -4q43 -8 66 -45t23 -86v-23q0 -31 -5 -43q0 -18 -16 -43q-12 -51 -39 -71q-16 -12 -45 -13q-10 0 -33 13l-14 12l-39 20l-29 9l-30 -56l80 -26q80 -31 86 -58 v-1095q0 -37 -56 -58q-27 -8 -51.5 -12t-58.5 -4l-52 4q-96 0 -157 25q-35 12 -62 55z" />
<glyph unicode="&#xd6;" d="M-514 -299q0 43 27 63l16 7q14 0 16 -21q-12 -12 -14 -22l6 -23q4 -14 6 -15t4 -3l11 8v102q0 53 58 80t130 27q78 0 138.5 -24.5t60.5 -82.5v-166h-72v166q0 23 -44 36t-83 13q-35 0 -73 -12t-42 -37v-137l-12 -20l-33 -9q-57 0 -78.5 17.5t-21.5 52.5z" />
<glyph unicode="&#xd7;" d="M-616 922q0 49 45 96q53 55 155 69q82 -12 129 -30q141 -49 185 -152l-23 -37h-416q-31 0 -47 12.5t-28 41.5zM-541 926h338q-37 41 -125 71l-75 19q-59 0 -105 -45zM-190 1030q0 59 19 98t69 46q45 0 65 -35l19 -47l10 -7q10 6 14 14.5t4 24.5q0 27 -10 45l6 15 q10 14 27 14q12 0 20 -8q10 -14 15 -49q0 -49 -13.5 -84t-48.5 -35q-29 0 -40 34t-46 34l-31 -3q-43 -6 -45 -32q0 -23 23 -23q10 0 22 19q4 12 17 12q16 0 36.5 -17.5t20.5 -41.5q-6 -49 -69 -50q-37 6 -56.5 28t-27.5 48z" />
<glyph unicode="&#xd8;" d="M-608 -193q4 27 10 41q20 41 74 52q2 -2 4 -2q14 -8 28 -21l39 -31l17 -2q12 0 26 17q31 37 45 39q35 0 60.5 -15.5t38.5 -50.5q14 39 35.5 52.5t60.5 13.5q49 -6 72 -15q71 -30 71 -106v-144l-67 -4v121q0 47 -19 70q-16 12 -51 16l-24 -2q-27 0 -45.5 -15.5 t-22.5 -45.5v-140h-74v113q0 80 -26 80q-6 -2 -11.5 -4t-13.5 -8l-35 -29l-16 -4q-14 0 -31 16l-37 27l-12 2q-10 -12 -12 -23l-4 -51l28 -14q27 -16 29 -41q0 -18 -25 -37l-51 -31q-37 0 -53 23l-8 22v131zM-532 -285v-28l12 6l6 4l-4 10zM-475 -453q4 10 16 19l41 16 q72 0 107 -26l61 -54l25 -20q35 -20 69 -21l27 2q23 18 27 37q-14 8 -27 11q-25 0 -33 22q0 55 58 55q61 0 75 -53q0 -76 -53 -96l-37 -14l-35 -5q-59 0 -108 25l-33 25q-33 35 -61.5 50t-53.5 19q-20 0 -30 -10l-4 -4z" />
<glyph unicode="&#xda;" d="M-383 -514l12 29q18 29 58 28q43 0 59 -3t29 -19q6 -4 10 -27l-6 -16l-45 -92l12 -11q10 -6 37 -10l24 4q8 4 11 8l12 21l6 16l12 37l2 31v45l-6 18h68l4 -39l2 -32l-2 -21l-10 -55q-6 -29 -29.5 -48.5t-52.5 -23.5h-60q-57 0 -88 33l-10 18l39 82l2 11l-6 14l-8 4 l-23 -14l-12 -15q-25 0 -32 10.5t-9 16.5z" />
<glyph unicode="&#xdc;" d="M-367 -512l9 18q27 45 59 45l27 -4l30 -18q12 -16 17 -33l-2 -10l-45 -84l-2 -6l10 -10q18 4 28 10l11 10l28 41l17 -29l20 -24l17 -8l10 12l12 24l6 50q0 25 -10 57l-6 18h70l6 -43l2 -45l-6 -53q0 -25 -28 -49.5t-50 -28.5q-31 6 -53 41l-9 17q-12 -33 -43 -52l-16 -6 q-37 0 -59 31l-13 33l33 67l4 13q-8 12 -14 16q-14 -8 -19 -16l-10 -19l-10 4q-10 8 -14 15z" />
<glyph unicode="&#xde;" d="M-453 -258q0 27 31 51l31 17l55 12q41 12 49 20l15 13q10 14 4 24l6 6l35 17q8 -4 10 -8v-29l-12 -29q-12 -23 -47 -37q-18 -8 -33 -12t-37 -4l-29 -10q-27 -12 -28 -27q2 -4 7 -10t20.5 -15.5t49.5 -15.5l60 23q63 35 92 96l33 6q18 0 28 -8l23 -41v-111h-57v107 l-52 -56q-31 -35 -55 -43q-25 -12 -43 -12l-35 -2q-66 12 -92.5 30.5t-28.5 47.5z" />
<glyph unicode="&#xdf;" d="M-543 -244q0 37 25.5 70t60.5 47l64 21l61 6q41 0 64 -11l59 -39l64 -63q45 -41 79 -41l25 -2l-37 -43q-8 -6 -41 -8q-31 0 -76 39l-73 75q-18 14 -54 27l-63 10q-39 -10 -55 -26l-11 -19l5 -6l4 -6l41 8q25 0 32 -26q0 -27 -10 -45q-20 -39 -72 -39q-35 0 -60.5 19.5 t-31.5 51.5z" />
<glyph unicode="&#xe1;" d="M-469 -203q0 53 65.5 80t141.5 27q88 0 153.5 -24.5t65.5 -82.5v-166h-78v166q0 20 -49 37q-49 12 -92 12q-39 0 -82 -12t-43 -37v-166h-82v166z" />
<glyph unicode="&#xe4;" d="M-469 -272l2 32l16 23q18 18 54 22v91l84 -2v-89l18 7l33 -2l20 -7q49 -23 68 -84l10 -10q8 -6 25 -10q12 0 20 20v84q-8 -31 -26 -32l-11 4l-6 4q-18 25 -18 51q0 35 16.5 52.5t63.5 17.5q16 -2 28 -13q29 -25 29 -80v-86l-2 -36q-4 -12 -18 -25l-35 -16q-12 -6 -29 -6 l-27 -5q-27 0 -43 15q-20 12 -30 35q-6 39 -25.5 55t-44.5 20l-12 -2l-2 -88l-8 -14q-12 -12 -39 -16h-39q-43 6 -55.5 30.5t-16.5 59.5zM-414 -274q2 -29 25 -33v49q-17 0 -25 -16z" />
<glyph unicode="&#xe5;" d="M-569 1087q0 49 45 97q53 55 155 69q35 0 66 -10q72 -14 137 -55l8 37q16 37 60 37q23 0 47 -9l28 -22q31 -31 31 -62q0 -23 -12 -45t-51 -53l-41 -31l-15 -6h-385q-41 0 -61 27zM-489 1100h337q-37 41 -124 71l-76 19q-59 0 -105 -45zM-119 1182q0 -12 23 -35 q37 0 39 20l-4 17l-9 14q-49 0 -49 -16z" />
<glyph unicode="&#xe6;" d="M-481 -182q6 16 22 36.5t41 22.5h385v-76h-30v-86q0 -27 -13 -43q-25 -37 -71 -37q-14 0 -23 5l-18 6l-82 78l-86 -78q-16 -6 -50 -11q-43 0 -65 43l-10 46v94zM-410 -193v-69l4 -17q8 -8 17 -8q12 0 41 23l78 43l77 -45l15 -13q18 -12 31 -12q12 0 12 25v73h-275z" />
<glyph unicode="&#xe7;" d="M-426 -190l2 10q6 43 62 71l53 13l61 6h23l32 -6l39 -10l25 -13q20 -6 31 -22q12 -6 12 -27l-18 -37q-18 -23 -68 -33l-92 -16l-72 -8v-53l10 -7l11 -6l30 -6l35 -2q27 0 57 19q12 4 19 28v39l31 14l39 5l20 -5v-71l-18 -17l-25 -18l-47 -18l-68 -9l-14 -2l-61 6 q-23 2 -33 4.5t-39 13.5t-37 30v75l70 6q37 0 49 5l76 18l53 20q18 10 18 27l-8 14l-18 15l-29 12l-43 2l-47 -2l-39 -14q-23 -6 -31 -15l-10 -22l23 14q14 6 36 -2q18 -12 19 -24q0 -12 -21 -27l-45 -10q-18 0 -34.5 7t-18.5 28z" />
<glyph unicode="&#xe9;" horiz-adv-x="460" d="M41 1106v55l20 2q55 0 121 -73l49 -76l11 8l8 8l29 43q29 31 81 31q51 -6 75 -45t24 -92l-4 -39q-2 -31 -25 -49.5t-72 -28.5q-39 0 -49 8q-6 8 -10 29q0 25 18.5 57.5t30.5 32.5l2 -8q4 -8 8 -8q12 -8 14.5 -18.5t22.5 -12.5q25 0 25 31q0 12 -12.5 32.5t-30.5 26.5 l-39 6q-41 0 -66.5 -31.5t-60.5 -31.5q-16 23 -39 51q-29 35 -39 47q-43 49 -74 49q-14 0 -18 -4zM156 543l49 88q57 88 92 88l33 -10q20 -8 36.5 -13.5t61.5 -27.5l37 4q-12 -51 -30.5 -75t-41.5 -24q-10 0 -33 13l-14 12q-31 18 -51 25l-37 8l-22 -33l-15 -27l64 -18 q63 -25 65 -47v-258l60 -15q35 -6 47 -67q0 -59 -22.5 -105.5t-61.5 -46.5q-31 -10 -62 -14q-25 0 -30 4l-15 10v473q0 14 -24.5 27.5t-85.5 28.5zM350 33l21 41q20 55 20 88q-4 12 -33 12l-8 -4v-137z" />
<glyph unicode="&#xed;" d="M-569 1087q0 49 45 97q53 55 155 69q82 -12 129 -30q141 -49 185 -152l-23 -37h-418q-41 0 -61 27zM-496 1092h340q-39 41 -127 71l-75 19q-59 0 -105 -45z" />
<glyph unicode="&#xf0;" d="M-494 -111h80v-161q0 -18 12.5 -26.5t41.5 -12.5q25 0 32 4q25 10 25 37v92q0 45 24 69q25 20 64 21l22 -2l35 2q49 0 87 -15.5t38 -64.5v-186h-73v166q0 16 -7 28l-22 10l-35 3h-37q-12 0 -14 -21l2 -102q0 -61 -23.5 -74.5t-103.5 -13.5l-88 2q-59 10 -60 75v170z" />
<glyph unicode="&#xf1;" d="M-520 -190q12 39 48 59t60 20h207v43l12 2l21 5l8 -2l19 -3v-47h49h24l17 -2q2 -29 -19 -37l-28 -2h-43v-51h26q63 -6 64 -61q0 -16 -16.5 -32.5t-49.5 -18.5l-33 6q-18 0 -31.5 18.5t-19.5 48.5l-28 -4l-52 -33l-28 -8q-16 0 -25 -4l-31 -4h-37l-34 2q-47 8 -72 59 l-6 27zM-461 -205q12 -29 28.5 -40t41.5 -11l45 -2l51 14q23 6 35 17l24 16l31 2v59h-92h-109q-27 0 -44 -17t-11 -38zM-135 -262q0 -18 16 -19q12 0 21 9v18l-6 8l-11 4l-12 2q-10 -6 -8 -22z" />
<glyph unicode="&#xf3;" horiz-adv-x="387" d="M-117 -401h84v-160l21 -21q35 -20 80 -20l32 4l35 -2q39 0 67 10t36 45v1032l-7 7q-10 10 -22 16q-35 18 -109 33l31 88q37 88 74 88l37 -12l77 -31q20 0 33 26l4 29q0 20 -11 37.5t-40 19.5l-59 -8l-23 8q-18 16 -18 43q0 20 10 37q12 33 64 33l38 -4q43 -8 66 -45 t23 -86v-23q0 -31 -5 -43q0 -18 -16 -43q-12 -51 -39 -71q-16 -12 -45 -13q-10 0 -33 13l-14 12l-39 20l-29 9l-30 -56l80 -26q80 -31 86 -58v-1095q0 -39 -64 -60q-43 -12 -111 -12l-43 2l-49 -2q-78 0 -124 23.5t-46 58.5z" />
<glyph unicode="&#xf6;" d="M-467 -115h82l-2 -135l6 -24q0 -10 12 -15q6 2 12.5 6t16.5 15l78 57l72 -55l18 -8l20 -5q18 0 19 25v49l-17 12l-10 5q-8 -8 -8 -15q0 -6 -2 -9t-4 -5l-10 -4q-12 0 -25 18q-4 16 -10 25q0 25 20.5 51.5t51.5 26.5l24 -4q20 -4 37 -17l23 -31v-131l-3 -30v-2 q-6 -12 -16 -19q-12 -12 -33 -18l-35 -8q-20 0 -32 6l-82 78l-80 -78q-12 -6 -37 -6q-31 0 -58.5 19t-27.5 58v168z" />
<glyph unicode="&#xf7;" horiz-adv-x="552" d="M166 309v125h127v105h125v-105h119v-125h-119v-125h-125v125h-127z" />
<glyph unicode="&#xf8;" d="M-471 -184l6 26q27 45 113 45h40t42 -8q55 -16 55 -59v-127l16 -10q6 -6 25 -7q16 0 35 13v190h76v-184q0 -43 -23 -57q-29 -14 -59 -15l-50 4h-22q-35 0 -52.5 14.5t-21.5 45.5v129l-26 16l-27 6q-23 0 -34 -4t-17 -10v-49l35 -19q31 -23 34 -51q0 -35 -71 -74 q-41 0 -62 27q-6 6 -12 29v129zM-401 -266v-41q16 0 22 10l6 21q-8 10 -14 10h-14z" />
<glyph unicode="&#xfa;" d="M-233 -465l22 19q12 6 37 10l43 -6q18 -8 20 -21v-170q0 -43 -32 -43l-41 6q-25 2 -27 11q23 18 27 30v119l-2 14q-9 11 -17 13l-10 6l-12 6z" />
<glyph unicode="&#xfc;" horiz-adv-x="442" d="M-106 -262l2 147l4 11q16 27 67 26q33 -4 43 -10q43 -18 43 -55q0 -18 -16.5 -46t-59.5 -69q0 -16 17 -25q33 -16 112 -16q43 0 61.5 3t43.5 13l49 37l4 740q0 10 -28.5 26.5t-79.5 28.5l34 88q41 88 76 88l33 -10l100 -41l37 4q-12 -53 -30.5 -73.5t-40.5 -24.5 q-12 0 -35 12l-15 12q-16 14 -36 21l-31 6l-29 -53l64 -19q63 -25 65 -47l2 -784q-6 -33 -16 -45q-30 -48 -98 -48l-76 -2l-137 -2q-51 0 -97 54zM-33 -137v-47q37 12 39 26q-14 12 -26 17z" />
<glyph unicode="&#xfe;" d="M-479 -203q0 53 65.5 80t143.5 27q88 0 153.5 -24.5t65.5 -82.5v-166h-82v162q0 20 -49 39q-29 8 -48.5 11t-39.5 3q-18 0 -39 -2t-55.5 -11t-36.5 -32v-37q31 0 68.5 -10t37.5 -57q-4 -25 -27.5 -43.5t-52.5 -22.5h-31q-45 0 -58 12.5t-15 28.5v125zM-406 -276v-48 q51 0 52 25q0 10 -19 16z" />
<glyph unicode="&#x2000;" horiz-adv-x="682" />
<glyph unicode="&#x2001;" horiz-adv-x="1365" />
<glyph unicode="&#x2002;" horiz-adv-x="682" />
<glyph unicode="&#x2003;" horiz-adv-x="1365" />
<glyph unicode="&#x2004;" horiz-adv-x="455" />
<glyph unicode="&#x2005;" horiz-adv-x="341" />
<glyph unicode="&#x2006;" horiz-adv-x="227" />
<glyph unicode="&#x2007;" horiz-adv-x="227" />
<glyph unicode="&#x2008;" horiz-adv-x="170" />
<glyph unicode="&#x2009;" horiz-adv-x="273" />
<glyph unicode="&#x200a;" horiz-adv-x="75" />
<glyph unicode="&#x2010;" horiz-adv-x="552" d="M182 260v80h363v-80h-363z" />
<glyph unicode="&#x2011;" horiz-adv-x="552" d="M182 260v80h363v-80h-363z" />
<glyph unicode="&#x2012;" horiz-adv-x="552" d="M182 260v80h363v-80h-363z" />
<glyph unicode="&#x2013;" horiz-adv-x="1213" d="M182 260v80h1024v-80h-1024z" />
<glyph unicode="&#x2014;" horiz-adv-x="2237" d="M182 260v80h2048v-80h-2048z" />
<glyph unicode="&#x2018;" d="M-557 885q0 14 16 28q25 25 80 56q55 0 137 -58q20 0 60 23l47 22l14 7l17 2l45 -7q18 -6 53 -34l39 2l-43 -72l-47 6l-39 19l-31 14l-27 4q-14 0 -36 -16l-39 -31l-33 -10q-55 35 -121 47q-20 0 -49 -27l-29 -26z" />
<glyph unicode="&#x2019;" d="M-518 911q0 47 47 86t154 54q63 0 98 -15q80 -31 135 -143l-27 -31q-59 86 -110 111q-33 14 -82 14q-63 0 -107 -35l-32 -37l39 11q51 10 92 10q39 0 67.5 -7t61.5 -26l-37 -37q-57 20 -105 21q-43 0 -86 -13l-32 -14q-41 0 -64 25z" />
<glyph unicode="&#x202f;" horiz-adv-x="273" />
<glyph unicode="&#x205f;" horiz-adv-x="341" />
<glyph unicode="&#x25fc;" horiz-adv-x="716" d="M0 0v717h717v-717h-717z" />
</font>
</defs>
</svg>
